<svg version="1.1" xmlns="http://www.w3.org/2000/svg" viewBox="0 0 368 356" width="368" height="356">
  <!-- svg-source:excalidraw -->
  
  <defs>
    <style>
      @font-face {
        font-family: "Virgil";
        src: url("https://excalidraw.com/Virgil.woff2");
      }
      @font-face {
        font-family: "Cascadia";
        src: url("https://excalidraw.com/Cascadia.woff2");
      }
    </style>
  </defs>
  <rect x="0" y="0" width="368" height="356" fill="#ffffff"></rect><g transform="translate(11 166) rotate(0 173 3.5)" stroke="none" fill="#000000"><path d="M -0.75 0 Q -0.75 0 -0.75 0 -0.75 0 -0.75 0 -0.75 0 -0.75 0 -0.75 0 -0.75 0 -0.75 0 -0.6793909313378941 -0.33160951862277555 -0.6087818626757882 -0.6632190372455511 0.40263980672108013 -1.4985603331447797 1.4140614761179484 -2.333901629044008 5.287847060812095 -1.7536073418257936 9.161632645506241 -1.173313054607579 15.835308188811902 -0.8619782191278204 22.508983732117564 -0.5506433836480618 32.073615633966156 -0.437809994462558 41.638247535814756 -0.3249766052770543 54.44824878464894 -0.015313045677523951 67.25825003348312 0.2943505139220064 83.75354373536885 0.3713966242054304 100.24883743725456 0.44844273448885436 113.38071899336919 0.5616318046071409 126.51260054948382 0.6748208747254274 137.4955298102063 0.9845636184081293 148.4784590709288 1.2943063620908313 158.1434910705056 1.371386058757393 167.80852307008243 1.4484657554239546 176.3180272358878 1.4677868672866805 184.82753140169316 1.4871079791494062 192.3079281607067 1.585929124617182 199.7883249197202 1.6847502700849581 207.11482341181392 1.9911366859968689 214.4413219039076 2.2975231019087796 221.22423134640854 2.4673841205337457 228.00714078890948 2.6372451391587117 234.78504767661713 2.9616364141478364 241.56295456432474 3.286027689136961 247.6340966675333 3.3661036243203526 253.70523877074186 3.446179559503744 258.97232550358495 3.466349444407135 264.23941223642805 3.4865193293105263 268.2748827301444 3.4915738552381623 272.3103532238607 3.4966283811657983 275.9439835869264 3.4978926127645593 279.5776139499921 3.4991568443633203 281.98604290605397 3.4994730235679423 284.39447186211584 3.4997892027725648 286.49654922599575 3.4720658111895197 288.5986265898757 3.4443424196064747 290.7965086424773 3.302920454498721 292.9943906950789 3.1614984893909677 295.76378983280216 2.9608019799810714 298.53318897052543 2.7601054705711756 301.2980242438605 2.780069080833505 304.0628595171955 2.800032691095834 306.1786875524309 3.1315917591530162 308.2945155876664 3.4631508272101987 310.89164151311707 3.663455598186258 313.4887674385677 3.8637603691623177 317.7202170107314 4.269812698337224 321.9516665828951 4.675865027512132 327.3538207880855 4.986355684321023 332.75597499327586 5.296846341129914 337.8166850012732 5.372725575438519 342.8773950092706 5.448604809747123 344.790846234007 5.472408520707821 346.70429745874344 5.496212231668518 347.30620466150776 5.814723315355458 347.90811186427203 6.133234399042397 348.004223161706 6.8074036727982765 348.10033445913996 7.481572946554157 347.6114128627964 7.955595376192083 347.1224912664528 8.42961780583001 346.4516181613028 8.312695318868169 345.7807450561528 8.195772831906329 345.48100801776263 7.584299775273346 345.1812709793725 6.972826718640362 345.49978206305946 6.370919515876066 345.81829314674644 5.76901231311177 346.4924624205023 5.672901015677817 347.1666316942582 5.576789718243863 347.64065412389607 6.065711314587412 348.114676553534 6.554632910930961 347.99775406657216 7.225506016080979 347.88083157961034 7.896379121230997 347.26935852297737 8.196116159621123 346.6578854663444 8.49585319801125 344.74443424160796 8.472049487050553 342.8309830168715 8.448245776089855 337.70426006408184 8.369400889153926 332.5775371112922 8.290556002217995 327.2299594733347 7.98215017404875 321.88238183537715 7.673744345879506 317.614904034949 7.85421073514187 313.34742623452087 8.034677124404235 310.4488426696042 8.082638135730122 307.5502591046875 8.13059914705601 305.68324917845376 7.852783176512505 303.81623925222004 7.574967205968999 301.17242355644123 7.407430091726117 298.5286078606624 7.239892977483235 295.76148323229444 7.039184828481423 292.99435860392646 6.8384766794796095 290.79643594777133 6.697014427131261 288.59851329161626 6.555552174782914 286.4963004777341 6.527670674783952 284.39408766385196 6.49978917478499 281.98535590886553 6.499472920325944 279.5766241538791 6.499156665866898 275.9416116727516 6.497891162810987 272.30659919162406 6.496625659755075 268.26749830856755 6.4915612470640225 264.22839742551105 6.48649683437297 258.9471986512628 6.466190964801606 253.66599987701454 6.445885095230242 247.5439999518577 6.364058012514612 241.42200002670086 6.282230929798981 234.67733880094687 5.95901013319202 227.9326775751929 5.635789336585059 221.12531456384744 5.465202068825681 214.31795155250197 5.294614801066302 207.03336022921002 4.989208071440837 199.7487689059181 4.683801341815371 192.28480640338904 4.5854499051336415 184.82084390086 4.4870984684519115 176.30291102049515 4.467729251716615 167.78497814013028 4.448360034981318 158.09026195502616 4.370678417255791 148.39554576992202 4.292996799530262 137.43948229192077 3.9836942856446047 126.4834188139195 3.6743917717589474 113.35932941513911 3.5613998116037964 100.23524001635872 3.4484078514486454 83.70664989866435 3.3707298406383197 67.17805978097 3.2930518298279936 54.39252575148387 2.983818905052524 41.606991721997744 2.674585980277054 32.039482510565094 2.561833431962558 22.471973299132436 2.4490808836480618 15.617084389313098 2.6080719691278205 8.762195479493759 2.767063054607579 5.021723251687905 2.7379823418257936 1.2812510238820516 2.708901629044008 0.33564144327891987 1.6860603331447797 -0.6099681373242118 0.6632190372455511 -0.6799840686621059 0.33160951862277555 -0.75 0 -0.75 0 -0.75 0 -0.75 0 -0.75 0 NaN NaN NaN NaN NaN NaN NaN NaN NaN NaN NaN NaN NaN NaN NaN NaN NaN NaN NaN NaN NaN NaN Z"></path></g><g transform="translate(179 10) rotate(0 -2 168)" stroke="none" fill="#000000"><path d="M 2.6418403299868887 2.530967175645719 Q 2.6418403299868887 2.530967175645719 2.587349442554648 5.029629657780523 2.5328585551224077 7.528292139915329 2.587349442554648 5.029629657780523 2.6418403299868887 2.530967175645719 2.587349442554648 5.029629657780523 2.5328585551224077 7.528292139915329 2.494729899427803 11.770466016839118 2.456601243733198 16.012639893762906 2.4528263114619215 21.826344352521502 2.449051379190645 27.640048811280096 2.4681744306159024 34.24419470221276 2.48729748204116 40.84834059314542 2.4920614879074137 47.46770275346066 2.496825493773667 54.08706491377589 2.591622434142447 61.64083977462852 2.686419374511227 69.19461463548114 2.9911065635305967 78.47442394902622 3.295793752549967 87.75423326257129 3.372445631165005 96.18936145118198 3.449097509780043 104.62448963979266 3.4681926785191783 112.7340424707937 3.4872878472583135 120.84359530179474 3.4920552568812453 127.65215993390623 3.496822666504177 134.46072456601775 3.498014201429239 140.56918770204845 3.499205736354301 146.6776508380792 3.499503587988 152.14227795596074 3.4998014396216988 157.60690507384228 3.4998736989395267 162.34811708259318 3.4999459582573547 167.08932909134407 3.4055689554437105 171.66521193216846 3.3111919526300664 176.24109477299285 3.0051926914830163 180.79087977665938 2.699193430335966 185.34066478032588 2.624863565847193 190.08781024680178 2.55053370135842 194.83495571327768 2.5316092886791335 199.958870042417 2.512684875999847 205.08278437155633 2.507928579794784 208.520829146098 2.5031722835897208 211.9588739206397 2.5019748284594705 214.69325727942072 2.5007773733292202 217.42764063820175 2.4054960369372287 220.19521433239143 2.3102147005452376 222.9627880265811 2.0029938857599197 226.5081566228306 1.6957730709746015 230.05352521908011 1.6230708625572166 233.59448909949032 1.5503686541398318 237.13545297990052 1.4597385474032172 239.01278175364808 1.3691084406666028 240.89011052739565 0.9392068455025844 242.8826908676282 0.509305250338566 244.87527120786078 -0.10915572299571463 246.55035716829815 -0.7276166963299953 248.22544312873555 -0.6718260141333035 250.12116387499037 -0.6160353319366118 252.01688462124523 -0.6779110143284328 253.76931319247677 -0.739786696720254 255.52174176370835 -1.032371815542715 257.3136541943113 -1.3249569343651764 259.1055666249143 -1.3035145674293038 260.75488800949813 -1.282072200493431 262.40420939408205 -1.2467385763611856 264.31464590379255 -1.21140495222894 266.2250824135031 -1.187007056081426 267.91312909689816 -1.1626091599339121 269.60117578029315 -1.1512291834724229 271.6255970563696 -1.1398492070109336 273.65001833244605 -1.1427029138763327 276.09190536084816 -1.1455566207417318 278.53379238925027 -1.1642489235896187 280.93201470678196 -1.1829412264375054 283.33023702431365 -1.1951033015843433 285.7301259191666 -1.207265376731181 288.13001481401955 -1.203236747093525 290.2253203699479 -1.199208117455869 292.32062592587624 -1.1923913363971128 294.2093950231217 -1.1855745553383565 296.09816412036724 -1.1782963718205348 297.71621218894506 -1.171018188302713 299.33426025752294 -1.1727104124216654 301.16976326180907 -1.1744026365406177 303.0052662660952 -1.1677966275202145 304.66686020386305 -1.1611906184998113 306.3284541416309 -1.2074136196036263 308.4010537627414 -1.2536366207074412 310.4736533838519 -1.3928579230624956 313.72037836017137 -1.53207922541755 316.96710333649077 -1.4661639448223005 318.74033614751073 -1.400248664227051 320.5135689585307 -1.3534777584562065 322.3450129245773 -1.306706852685362 324.17645689062385 -1.2644246539105621 325.7946851397699 -1.2221424551357623 327.41291338891597 -1.360462090316818 329.1293103582591 -1.498781725497874 330.84570732760216 -2.102051460556016 332.9913217433504 -2.7053211956141574 335.13693615909864 -3.1663247970523014 336.39274639262555 -3.6273283984904454 337.6485566261525 -4.80383473042308 338.2256903487631 -5.9803410623557145 338.8028240713738 -7.1387851231133075 338.1902411456017 -8.2972291838709 337.5776582198297 -8.482555520976504 336.2803900780691 -8.667881858082108 334.98312193630846 -7.727301972948629 334.0706746980891 -6.78672208781515 333.15822745986964 -5.495677780540731 333.3828495413894 -4.204633473266313 333.60747162290926 -3.6274997506556814 334.78397795484193 -3.05036602804505 335.96048428677454 -3.6629489538171005 337.1189283475321 -4.275531879589151 338.27737240828975 -5.572800021349752 338.46269874539536 -6.8700681631103535 338.64802508250096 -7.782515401329793 337.70744519736746 -8.694962639549232 336.76686531223396 -8.470340558029395 335.4758210049596 -8.245718476509559 334.18477669768515 -7.592205296030461 332.3346878203397 -6.938692115551364 330.4845989429942 -6.858274830207801 328.94875616595505 -6.777857544864237 327.41291338891597 -6.735575346089437 325.7946851397699 -6.6932931473146375 324.17645689062385 -6.646522241543793 322.3450129245773 -6.5997513357729485 320.5135689585307 -6.5338360551777 318.74033614751073 -6.46792077458245 316.96710333649077 -6.607142076937505 313.72037836017137 -6.746363379292559 310.4736533838519 -6.792586380396374 308.4010537627414 -6.838809381500188 306.3284541416309 -6.8322033724797855 304.66686020386305 -6.825597363459382 303.0052662660952 -6.827289587578335 301.16976326180907 -6.828981811697287 299.33426025752294 -6.8217036281794625 297.71621218894506 -6.814425444661638 296.09816412036724 -6.807608663602841 294.2093950231216 -6.800791882544044 292.3206259258759 -6.796763252905734 290.2253203699456 -6.792734623267424 288.13001481401534 -6.804896698403793 285.73012591913005 -6.817058773540163 283.33023702424475 -6.835751076220562 280.9320147059648 -6.854443378900962 278.53379238768485 -6.857297074686208 276.0919053049216 -6.860150770471455 273.65001822215834 -6.848770084705208 271.6255909682736 -6.837389398938961 269.6011637143889 -6.812946107286962 267.9129044802708 -6.788502815634962 266.2246452461527 -6.750263879215633 264.3015030350217 -6.712024942796305 262.3783608238907 -6.645577116538391 260.5940142071629 -6.579129290280478 258.80966759043514 -6.152361093945345 256.9658366361589 -5.725592897610211 255.12200568188268 -5.527815537480518 253.45254009504703 -5.330038177350826 251.78307450821134 -5.205497679092533 250.21550466311368 -5.08095718083424 248.64793481801604 -4.075731234040394 246.55102401729326 -3.070505287246549 244.45411321657048 -2.3946084520623874 242.55808227648572 -1.718711616878226 240.66205133640094 -1.5837464879322751 238.8676229058434 -1.4487813589863245 237.07319447528585 -1.3691026246734483 233.4271295384756 -1.2894238903605724 229.78106460166538 -0.9871209342248467 226.3283179290331 -0.684817978089121 222.8755712564008 -0.5920042307969375 220.15068387506335 -0.499190483504754 217.4257964937259 -0.49800760389830495 214.6903355503984 -0.4968247242918559 211.9548746070709 -0.4920596815501218 208.51354217317848 -0.48729463880838775 205.07220973928605 -0.4681336957004856 199.92861523468895 -0.44897275259258346 194.78502073009184 -0.3709611939326015 189.96213086162203 -0.29294963527261964 185.1392409931522 0.010416796175350185 180.65888465703586 0.31378322762332 176.17852832091953 0.4068689951897557 171.63384580261248 0.4999547627561914 167.08916328430544 0.49987810359433815 162.3481138565306 0.499801444432485 157.60706442875576 0.4995036221474598 152.14264580053438 0.4992057998624347 146.678227172313 0.49801463911260047 140.57050732393202 0.4968234783627662 134.462787475551 0.4920601052861131 127.65662017001566 0.48729673220945996 120.85045286448029 0.46826877015025514 112.75107794489386 0.4492408080910504 104.65170302530744 0.37340016351272926 96.25112021156826 0.29755951893440813 87.8505373978291 -0.007723384819659368 78.53750270197476 -0.31300628857372687 69.22446800612042 -0.40808971929869686 61.65686682937539 -0.5031731500236669 54.08926565263036 -0.5079306285324134 47.47312366255497 -0.51268810704116 40.85698167247958 -0.5316509931159025 34.26911096184974 -0.550613879190645 27.681240251219904 -0.7067325614619218 21.976878303728498 -0.8628512437331985 16.272516356237094 -1.510354899427803 11.942424608160882 -2.1578585551224077 7.612332860084671 -2.399849442554648 5.071932842219477 -2.6418403299868887 2.531532824354281 -2.6418403299868887 1.2659078243542812 -2.6418403299868887 0.0002828243542811748 -2.3896501466779183 -0.7761615754072281 -2.1374599633689475 -1.5526059751687373 -1.4770512518525607 -2.0325290192411054 -0.8166425403361738 -2.5124520633134733 -0.0002689819451059394 -2.5125394608453693 0.8161045764459619 -2.5126268583772653 1.476616029923019 -2.032845226482038 2.1371274834000764 -1.5530635945868108 2.3894839066934823 0.48895179052945403 Z"></path></g><g transform="translate(184 172) rotate(0 40.5 -22.5)" stroke="none" fill="#000000"><path d="M 1.1480427989956496 -2.648257876892624 Q 1.1480427989956496 -2.648257876892624 1.952256373696569 -2.808421344317416 2.7564699483974886 -2.968584811742208 1.952256373696569 -2.808421344317416 1.1480427989956496 -2.648257876892624 1.952256373696569 -2.808421344317416 2.7564699483974886 -2.968584811742208 3.736781038731668 -3.861426155340265 4.717092129065847 -4.754267498938322 6.133351589991114 -6.059998487323152 7.549611050916381 -7.365729475707981 8.938426473166139 -8.257129055578044 10.327241895415895 -9.148528635448105 11.904315583858363 -10.174114221292818 13.48138927230083 -11.19969980713753 15.387444500293983 -12.492130915076487 17.293499728287134 -13.784562023015441 19.430269872924683 -15.184809918568334 21.567040017562235 -16.585057814121225 24.082854695306555 -18.015335127188166 26.598669373050875 -19.445612440255104 29.12946407667191 -20.874855367772057 31.660258780292942 -22.30409829528901 34.371026784207565 -23.92310836253001 37.08179478812219 -25.542118429771005 39.90056355647988 -27.463538428206817 42.719332324837566 -29.384958426642633 44.19806097688895 -30.672875157846267 45.67678962894033 -31.9607918890499 47.16252319788041 -33.17111826509998 48.648256766820495 -34.381444641150054 50.23978617948541 -35.34563689248946 51.83131559215032 -36.309829143828864 53.62578564814262 -36.85729828998589 55.42025570413492 -37.40476743614292 57.23386936066504 -38.193263119602186 59.047483017195155 -38.98175880306145 61.495894018224995 -39.81435381627741 63.944305019254834 -40.64694882949337 66.45776899985667 -41.38948393319373 68.9712329804585 -42.1320190368941 71.11712157366485 -43.17310803645272 73.2630101668712 -44.214197036011335 75.08566177246152 -44.98067833536932 76.90831337805184 -45.74715963472731 78.7412642704787 -46.69565975585054 80.57421516290555 -47.64415987697377 81.73885418885041 -47.21926034395064 82.90349321479528 -46.7943608109275 83.24429991537224 -45.60239836740886 83.58510661594921 -44.41043592389022 82.82110989496755 -43.43409956573984 82.05711317398588 -42.45776320758946 80.81817446262325 -42.50197342591263 79.57923575126061 -42.5461836442358 78.88677266617589 -43.57449223104816 78.19430958109116 -44.60280081786052 78.6192091141143 -45.76743984380539 79.04410864713743 -46.932078869750256 80.23607109065607 -47.272885570327226 81.4280335341747 -47.613692270904195 82.4043698923251 -46.84969554992253 83.38070625047547 -46.085698828940856 83.3364960321523 -44.84676011757822 83.29228581382912 -43.607821406215585 82.26397722701677 -42.91535832113086 81.23566864020441 -42.222895236046135 78.7084581057055 -41.13717282617695 76.1812475712066 -40.051450416307766 74.4421160585608 -39.43832339831822 72.702984545915 -38.82519638032867 71.15890260499526 -38.33723152439863 69.61482066407551 -37.8492666684686 67.50319378734436 -37.2722175912394 65.39156691061321 -36.69516851401019 63.0937858064451 -35.79093954248149 60.79600470227698 -34.886710570952786 57.7628148206109 -33.955526875029 54.72962493894481 -33.024343179105216 52.78229110917053 -32.11246923743324 50.83495727939625 -31.200595295761264 49.29551191766145 -30.28398157717831 47.75606655592665 -29.367367858595358 46.1340794852785 -28.14752421126688 44.512092414630345 -26.927680563938402 41.6779982921899 -24.81805904824577 38.84390416974946 -22.708437532553138 36.19322061047155 -20.953281543280347 33.54253705119364 -19.19812555400756 31.12752550204455 -17.630704255469368 28.712513952895456 -16.06328295693118 26.445103619559273 -14.506903365777536 24.17769328622309 -12.950523774623894 22.181563386538627 -11.404144053294461 20.185433486854162 -9.857764331965027 18.30988853755926 -8.363684972374685 16.434343588264355 -6.869605612784344 14.885016567554601 -5.749149328511869 13.335689546844847 -4.6286930442393945 11.559151884483272 -3.504315869527719 9.782614222121698 -2.379938694816043 8.559187274081797 -1.169291360734531 7.335760326041898 0.04135597334698127 6.517302711125796 0.6471998156270679 5.698845096209695 1.2530436579071544 4.640046358589745 1.7887406440137117 3.581247620969796 2.324437630120269 2.4470711609870732 2.4863477535064464 1.3128947010043504 2.648257876892624 0.6976603260043504 2.648257876892624 0.08242595100435035 2.648257876892624 -0.7037484890802368 2.4195961315963066 -1.489922929164824 2.1909343862999893 -1.9915474100878305 1.54384140678082 -2.4931718910108374 0.8967484272616507 -2.5186429106486985 0.07839173781451231 -2.5441139302865596 -0.7399649516326261 -2.083702424865728 -1.4170009105597685 -1.6232909194448968 -2.094036869486911 -0.23762406022462357 -2.3711473731897676 Z"></path></g><g transform="translate(263 123) rotate(0 5 5)" stroke="none" fill="#000000"><path d="M 0.1893005461638036 -3.2885494856303996 Q 0.1893005461638036 -3.2885494856303996 1.3862309264417003 -3.4614957199351215 2.583161306719597 -3.634441954239844 1.3862309264417003 -3.4614957199351215 0.1893005461638036 -3.2885494856303996 1.3862309264417003 -3.4614957199351215 2.583161306719597 -3.634441954239844 3.9069852723066654 -3.789056007488661 5.230809237893734 -3.9436700607374777 7.1144503215874035 -4.163273136804056 8.998091405281073 -4.3828762128706344 10.40488004760085 -3.451348152904219 11.811668689920626 -2.5198200929378034 12.191830508584244 -0.5749817206283505 12.571992327247862 1.3698566516811024 11.82828331050207 3.5143027915642118 11.084574293756276 5.658748931447321 9.582164475120326 7.851374406181687 8.079754656484376 10.043999880916054 7.403195117934161 11.36726773652397 6.726635579383947 12.690535592131889 5.858750582998763 13.626514158014821 4.9908655866135785 14.562492723897753 3.723513018882478 14.410513410146944 2.4561604511513773 14.258534096396136 1.8341831500018841 13.143893131960695 1.212205848852391 12.029252167525252 1.7483802468307987 10.870892440283637 2.2845546448092064 9.71253271304202 3.5368427535357068 9.465440148433153 4.789130862262207 9.218347583824288 5.725109428145139 10.086232580209472 6.66108799402807 10.954117576594655 6.509108680277262 12.221470144325757 6.357129366526455 13.488822712056857 5.2424884020910145 14.110800013206351 4.127847437655573 14.732777314355843 2.969487710413955 14.196602916377437 1.8111279831723373 13.660428518399028 1.5640354185634706 12.40814040967253 1.316942853954604 11.155852300946034 3.1998765999148078 8.213265018066547 5.082810345875012 5.270677735187062 6.425389921958509 3.449797553678204 7.767969498042007 1.6289173721693455 6.578484162287539 1.562783195394941 5.388998826533071 1.4966490186205363 4.168543759906737 1.61632673643019 2.948088693280403 1.7360044542398438 1.9418940735583 1.7154019699351217 0.9356994538361965 1.6947994856303996 0.6544494538361965 2.0932369856303996 0.3731994538361964 2.4916744856303996 -0.3947226809429273 2.363421312042185 -1.162644815722051 2.2351681384539708 -1.708521549120192 1.6800358357064635 -2.254398282518333 1.1249035329589563 -2.3697232560451664 0.35493377244870683 -2.485048229572 -0.4150359880615426 -2.125771223091957 -1.1057409281292347 -1.7664942166119144 -1.796445868196927 -0.7885968352240554 -2.5424976769136634 Z"></path></g><g transform="translate(266 125) rotate(0 -7.5 -32.5)" stroke="none" fill="#000000"><path d="M -2.6758192963469867 -1.23046875 Q -2.6758192963469867 -1.23046875 -2.7036232758318777 -2.3880615234375 -2.731427255316768 -3.545654296875 -2.7036232758318777 -2.3880615234375 -2.6758192963469867 -1.23046875 -2.7036232758318777 -2.3880615234375 -2.731427255316768 -3.545654296875 -2.743605516310084 -5.375816345214844 -2.7557837773033995 -7.2059783935546875 -2.8381035598097974 -9.143305505907447 -2.9204233423161954 -11.080632618260207 -3.304245197119556 -12.89882200565619 -3.688067051922917 -14.717011393052173 -4.3347462124000025 -17.128646532121216 -4.981425372877087 -19.540281671190257 -5.595426199089829 -21.055199144749462 -6.209427025302571 -22.570116618308667 -6.773085035574805 -24.31566941154845 -7.33674304584704 -26.06122220478823 -7.842251638126887 -27.952385117694412 -8.347760230406735 -29.843548030600594 -8.840565290907218 -31.386566178954933 -9.3333703514077 -32.92958432730927 -9.758240659314506 -34.513577745524266 -10.183110967221314 -36.09757116373926 -10.529310584934631 -37.9938968280068 -10.875510202647947 -39.890222492274326 -11.613554683183356 -42.048642206451674 -12.351599163718763 -44.20706192062903 -12.865644315231023 -46.04893944497161 -13.379689466743281 -47.890816969314194 -13.864437730354883 -49.525925711757594 -14.349185993966483 -51.161034454200994 -14.85091729932321 -53.166605436903595 -15.35264860467994 -55.17217641960619 -15.821735974898878 -57.16509371888692 -16.290823345117815 -59.15801101816765 -16.991270299265743 -61.7469237306852 -17.69171725341367 -64.33583644320274 -17.3733549270038 -65.55311620299165 -17.054992600593927 -66.77039596278054 -15.883063907666804 -67.22833452106426 -14.71113521473968 -67.68627307934797 -13.65181273626764 -67.00733238158955 -12.592490257795598 -66.32839168383113 -12.519110690187166 -65.07231046690029 -12.445731122578735 -63.81622924996947 -13.418790745731108 -63.018557917740836 -14.391850368883482 -62.220886585512204 -15.609130128672385 -62.53924891192207 -16.82640988846129 -62.85761123833195 -17.284348446745 -64.02953993125907 -17.74228700502871 -65.20146862418619 -17.063346307270294 -66.26079110265823 -16.384405609511877 -67.32011358113027 -15.128324392581044 -67.39349314873871 -13.872243175650212 -67.46687271634714 -13.07457184342158 -66.49381309319477 -12.27690051119295 -65.5207534700424 -11.865020543319911 -63.4137608294975 -11.45314057544687 -61.3067681889526 -10.982724436262455 -58.94503937874183 -10.512308297078038 -56.58331056853106 -9.99902069814414 -54.610539011578766 -9.48573309921024 -52.63776745462648 -8.972860002586923 -50.971079060311084 -8.459986905963609 -49.30439066599569 -7.597839241969635 -46.71710799405208 -6.735691577975661 -44.129825322108466 -6.115418094116034 -41.184978151406426 -5.495144610256407 -38.24013098070439 -4.995189955352088 -36.35158260535848 -4.495235300447769 -34.46303423001257 -3.9809488387314556 -32.84498021434966 -3.466662377015142 -31.226926198686762 -2.943804880427801 -29.47380045552398 -2.42094738384046 -27.720674712361195 -1.8711410386439442 -26.139072881325113 -1.3213346934474286 -24.55747105028903 -0.48147809778517076 -22.513770026744783 0.3583784978770871 -20.470069003200535 0.980254024900002 -18.396864658174003 1.6021295519229168 -16.32366031314747 2.073776447119556 -13.9468874970408 2.5454233423161954 -11.570114680934129 2.6506035598097974 -9.388046537244408 2.7557837773033995 -7.2059783935546875 2.743605516310084 -5.375816345214844 2.731427255316768 -3.545654296875 2.7036232758318777 -2.3880615234375 2.6758192963469867 -1.23046875 2.6758192963469867 -0.615234375 2.6758192963469867 0 2.4203012904840566 0.7864035600961907 2.164783284621126 1.5728071201923814 1.4958284605343795 2.058831249205748 0.8268736364476327 2.5448553782191143 -1.1102230246251565e-16 2.5448553782191143 -0.8268736364476329 2.5448553782191143 -1.4958284605343792 2.058831249205748 -2.1647832846211257 1.572807120192382 -2.420301290484056 0.17116918509619095 Z"></path></g><g transform="translate(244 68) rotate(0 8.5 -6)" stroke="none" fill="#000000"><path d="M -1.093570455191427 -2.9539704247489658 Q -1.093570455191427 -2.9539704247489658 -0.8225441005580509 -3.8379123887059348 -0.5515177459246751 -4.721854352662904 -0.8225441005580509 -3.8379123887059348 -1.093570455191427 -2.9539704247489658 -0.8225441005580509 -3.8379123887059348 -0.5515177459246751 -4.721854352662904 0.08080327140508603 -5.962489603924601 0.7131242887348471 -7.203124855186297 1.6343078373595321 -8.729005888016218 2.555491385984217 -10.254886920846138 3.5914344918457277 -11.670169508434945 4.627377597707238 -13.085452096023753 6.415396686685815 -13.896280125655068 8.203415775664393 -14.707108155286381 9.903570412224544 -14.443440558272291 11.603725048784696 -14.179772961258202 13.079542756247916 -13.113339007589161 14.555360463711136 -12.046905053920122 15.617413092269837 -10.821450067814139 16.67946572082854 -9.595995081708155 17.963701862281287 -8.614943029593855 19.247938003734035 -7.633890977479555 19.389345187915442 -6.365415483737667 19.53075237209685 -5.0969399899957795 18.587651198141543 -4.236947986750419 17.64455002418624 -3.376955983505058 16.394460917063544 -3.6344502440527786 15.144371809940845 -3.8919445046004992 14.617905101459774 -5.05463916564567 14.091438392978704 -6.217333826690842 14.722628765965133 -7.326669115506218 15.353819138951561 -8.436004404321594 16.62229463269345 -8.577411588503 17.89077012643534 -8.718818772684406 18.750762129680698 -7.775717598729103 19.610754132926058 -6.8326164247738 19.353259872378338 -5.582527317651103 19.095765611830622 -4.332438210528407 17.93307095078545 -3.805971502047335 16.770376289740277 -3.2795047935662622 15.661041000924902 -3.9106951665526886 14.551705712109527 -4.541885539539115 13.277391033807673 -5.529469895873037 12.003076355505819 -6.517054252206958 10.320935211119343 -7.138275527538521 8.638794066732867 -7.759496802870083 7.208519589209926 -6.435339958475758 5.778245111686986 -5.1111831140814346 5.09847517880583 -3.9095081307092654 4.4187052459246745 -2.7078331473370962 3.7405128505580505 -1.2363063612940652 3.062320455191427 0.23522042474896587 2.570132955191427 0.9149079247489658 2.077945455191427 1.5945954247489658 1.4108794838924914 2.0530179580765537 0.743813512593556 2.5114404914041417 -0.0653081989650246 2.4902205712349077 -0.8744299105236052 2.4690006510656737 -1.516550369561942 1.9762435656657056 -2.158670828600279 1.4834864802657373 -2.3885218446374115 0.7074086880604887 -2.6183728606745444 -0.0686691041447598 -1.8559716579329857 -1.5113197644468628 Z"></path></g><g transform="translate(246 63) rotate(0 -28.5 48.5)" stroke="none" fill="#000000"><path d="M 0.7669012693076105 2.0593852700958006 Q 0.7669012693076105 2.0593852700958006 0.5406665866119122 3.127656444553178 0.3144319039162139 4.195927619010555 0.5406665866119122 3.127656444553178 0.7669012693076105 2.0593852700958006 0.5406665866119122 3.127656444553178 0.3144319039162139 4.195927619010555 -0.6660935940294617 6.194452039259955 -1.6466190919751371 8.192976459509355 -2.991253415119868 10.891780020337706 -4.335887738264599 13.590583581166058 -6.297021485625526 16.904990947273145 -8.258155232986454 20.219398313380232 -9.915459140359143 23.48392378946162 -11.572763047731835 26.74844926554301 -13.530984118699958 29.61954222158698 -15.489205189668084 32.49063517763095 -17.365468399036324 35.33200095122017 -19.24173160840456 38.17336672480938 -20.831575350399056 40.66144031658952 -22.421419092393556 43.149513908369656 -23.832710994448203 45.2302859157979 -25.24400289650285 47.311057923226144 -26.362620643724696 49.22175523393443 -27.481238390946547 51.132452544642724 -28.812143223281424 53.28629490735857 -30.143048055616298 55.4401372700744 -31.04290870560932 56.93598297622161 -31.942769355602344 58.431828682368824 -32.961728554968026 60.43623767024138 -33.98068775433371 62.440646658113934 -35.01008517100969 64.28759209846842 -36.03948258768568 66.13453753882291 -36.79142800999374 67.6924706213492 -37.543373432301784 69.25040370387548 -38.221998181253696 70.6565011354287 -38.90062293020561 72.06259856698192 -39.784293237526384 73.63946571294704 -40.667963544847154 75.21633285891217 -41.78926432476557 77.3079040754169 -42.91056510468399 79.39947529192162 -43.90353225451828 81.32362143520947 -44.896499404352575 83.24776757849733 -46.06292867240676 84.54129648173834 -47.22935794046095 85.83482538497935 -48.411945506551234 87.8613905160839 -49.594533072641525 89.88795564718845 -51.18991623536927 91.86998842755203 -52.78529939809701 93.85202120791561 -53.796118103053935 96.24279238780625 -54.80693680801086 98.6335635676969 -55.974736852364146 99.14562735488049 -57.142536896717424 99.65769114206408 -58.2432208464503 99.01390460249002 -59.34390479618318 98.37011806291594 -59.47003633800593 97.10123780856026 -59.596167879828684 95.83235755420458 -58.64376045036045 94.98448589290786 -57.69135302089222 94.13661423161115 -56.445599396639054 94.40876156927297 -55.199845772385885 94.6809089069348 -54.68778198520229 95.84870895128807 -54.17571819801869 97.01650899564136 -54.819504737592766 98.11719294537424 -55.46329127716684 99.21787689510712 -56.732171531522525 99.34400843692987 -58.001051785878204 99.47013997875263 -58.84892344717492 98.5177325492844 -59.69679510847163 97.56532511981617 -59.42464777080981 96.319571495563 -59.152500433147985 95.07381787130983 -58.460771946285035 93.65887546865409 -57.769043459422086 92.24393306599833 -56.50562881223546 90.50603718707683 -55.242214165048836 88.76814130815531 -54.205658743735306 87.07353962866685 -53.169103322421776 85.3789379491784 -51.42708646638493 82.88687781696781 -49.68506961034808 80.39481768475723 -48.507650386590726 78.14376278679242 -47.330231162833364 75.8927078888276 -46.500981024548146 74.3556687458508 -45.67173088626293 72.81862960287401 -44.47389181438507 70.92563482262115 -43.276052742507204 69.03264004236829 -42.55675327784467 67.39924636160913 -41.83745381318214 65.76585268084997 -40.89865190386808 64.23749442126956 -39.95984999455402 62.70913616168914 -39.10782347118064 61.28065943619617 -38.25579694780726 59.8521827107032 -37.07887922934789 57.84681620616908 -35.90196151088852 55.841449701634964 -34.75908958712692 54.19904298999241 -33.616217663365326 52.55663627834984 -32.09887736391701 50.70700015497478 -30.5815370644687 48.85736403159972 -29.215270091394885 47.1699066037626 -27.849003118321065 45.48244917592547 -26.39980404261158 43.50348183208113 -24.950604966902098 41.52451448823679 -23.34848479784008 39.02363067492659 -21.746364628778057 36.522746861616405 -19.85477219392022 33.65828301484429 -17.963179759062385 30.793819168072176 -16.099978253126213 28.091593642670833 -14.23677674719004 25.38936811726949 -12.608390346945544 22.11061966756963 -10.980003946701046 18.831871217869768 -9.548376463593224 15.473182880851855 -8.1167489804854 12.114494543833942 -7.140338381755132 9.120915292162293 -6.163927783024863 6.127336040490644 -5.360273593470538 4.106329210740045 -4.556619403916214 2.085322380989445 -3.6461353366119122 0.5754685554468223 -2.7356512693076107 -0.9343852700958004 -2.2434637693076107 -1.2156352700958006 -1.7512762693076107 -1.4968852700958006 -1.144120723443439 -1.8686326280108159 -0.5369651775792674 -2.240379985925831 0.1727415918149829 -2.184252840386518 0.8824483612092332 -2.128125694847205 1.4236224902708423 -1.665562707758069 1.9647966193324513 -1.2029997206689333 2.1307279845920064 -0.5106842311603464 2.296659349851561 0.18163125834824045 1.5317803095795859 1.1205082642220205 Z"></path></g><g transform="translate(185 155) rotate(0 3.5 6.5)" stroke="none" fill="#000000"><path d="M 0.2900868669733452 2.531407253833817 Q 0.2900868669733452 2.531407253833817 -0.05974643666081647 3.996038146619408 -0.4095797402949781 5.4606690394049995 -0.05974643666081647 3.996038146619408 0.2900868669733452 2.531407253833817 -0.05974643666081647 3.996038146619408 -0.4095797402949781 5.4606690394049995 -1.0639669870676707 7.469870255722609 -1.7183542338403632 9.479071472040218 -1.9008539999567764 9.791180789651886 -2.0833537660731896 10.103290107263554 0.023952393456126986 9.394380262104807 2.1312585529854435 8.685470416946062 4.084477554043856 7.452573597391675 6.0376965551022685 6.219676777837287 8.13188726709561 4.74863427596277 10.22607797908895 3.2775917740882528 11.497435436874795 3.571551214818111 12.768792894660638 3.8655106555479692 13.278259875531798 5.066845468855201 13.787726856402957 6.268180282162432 13.11528375438919 7.38647461408762 12.442840652375423 8.504768946012806 11.142869394765274 8.618067964761352 9.842898137155126 8.731366983509895 8.987133371914203 7.746263636223915 8.131368606673279 6.761160288937936 8.425328047403138 5.489802831152092 8.719287488132995 4.218445373366247 9.920622301440225 3.708978392495088 11.121957114747458 3.1995114116239285 12.240251446672644 3.871954513637694 13.35854577859783 4.544397615651459 13.471844797346375 5.844368873261608 13.585143816094922 7.1443401308717585 12.600040468808945 8.000104896112681 11.614937121522967 8.855869661353605 10.0037476138378 10.093062190013963 8.392558106152634 11.330254718674322 6.855910498383867 12.324103015330772 5.3192628906151 13.317951311987223 3.531878493110172 13.979252052476696 1.7444940956052442 14.640552792966169 -0.8369572707298543 14.793000571600466 -3.4184086370649527 14.945448350234765 -4.7821574019238495 12.766715423184873 -6.145906166782746 10.58798249613498 -5.939063153747408 8.543459764437403 -5.732220140712069 6.498937032739825 -5.3250033356496775 4.6194145762306205 -4.917786530587286 2.739892119721416 -3.7758116987803154 0.8542424329437998 -2.633836866973345 -1.0314072538338166 -2.047899366973345 -1.4064072538338168 -1.4619618669733452 -1.7814072538338168 -0.7988144751762779 -2.0409578104545414 -0.13566708337921063 -2.3005083670752664 0.5533904157660028 -2.120700921286375 1.2424479149112162 -1.9408934754974836 1.6942189769341063 -1.3904083601600283 2.145990038956996 -0.839923244822573 2.187913473298455 -0.12902706369455624 2.229836907639914 0.5818691174334605 1.2599618873066296 1.5566381856336386 Z"></path></g><g transform="translate(274 141) rotate(0 -6.5 7)" stroke="none" fill="#000000"><path d="M -1.171875 2.6688662711530924 Q -1.171875 2.6688662711530924 -2.138671875 2.683309030168587 -3.10546875 2.697751789184082 -2.138671875 2.683309030168587 -1.171875 2.6688662711530924 -2.138671875 2.683309030168587 -3.10546875 2.697751789184082 -4.530085013734105 2.7025181696362495 -5.954701277468209 2.7072845500884166 -7.5641676405763825 3.095191810959797 -9.173634003684557 3.4830990718311767 -10.197809607763187 5.062467214891553 -11.221985211841817 6.641835357951929 -11.059529161008854 7.535470515081933 -10.897073110175889 8.429105672211938 -10.40689273906169 6.613316684002854 -9.91671236794749 4.79752769579377 -9.740573842377707 3.229244509516703 -9.564435316807922 1.6609613232396363 -9.076838289779241 0.5194669645874566 -8.58924126275056 -0.6220273940647232 -7.863456842816645 -1.146190323906104 -7.13767242288273 -1.6703532537474848 -6.242405252944451 -1.667804593429722 -5.347138083006171 -1.6652559331119594 -4.624349792968023 -1.1369691842506606 -3.901561502929875 -0.6086824353893621 -3.731536389831515 -0.12056580831175445 -3.561511276733155 0.36755081876585316 -2.820494099681368 2.2271346806543297 -2.0794769226295813 4.0867185425428065 -1.1799339803348063 5.687554712835212 -0.28039103804003124 7.288390883127616 0.681162649843591 8.940658861045483 1.6427163377272131 10.592926838963349 2.6924011685262963 11.914409414301474 3.7420859993253797 13.235891989639597 3.4553025238227857 14.495586464151 3.1685190483201917 15.755280938662404 1.980837713218643 16.263698067787015 0.7931563781170943 16.772115196911624 -0.31626329277176235 16.11010090342487 -1.425682963660619 15.44808660993811 -1.542202670862348 14.161425003776827 -1.658722378064077 12.874763397615546 -0.6862798381644477 12.024216257517207 0.28616270173518144 11.173669117418866 1.545857176246585 11.46045259292146 2.8055516507579883 11.747236068424055 3.313968779882598 12.934917403525603 3.822385909007208 14.12259873862715 3.160371615520453 15.232018409516007 2.4983573220336983 16.341438080404863 1.2116957158724149 16.457957787606595 -0.07496589028886858 16.574477494808324 -0.9255130303872081 15.602034954908696 -1.7760601704855477 14.62959241500907 -2.83007225078798 12.995041563271691 -3.8840843310904125 11.360490711534313 -5.074250149646739 10.047451224836951 -6.264415968203064 8.73441173813959 -7.311405097591859 6.334556675055458 -8.358394226980653 3.9347016119713247 -8.507210448506784 2.0513790249549158 -8.656026670032915 0.168056437938507 -8.622633966391739 -0.22698547806310843 -8.589241262750562 -0.6220273940647238 -7.863456842816646 -1.1461903239061044 -7.13767242288273 -1.6703532537474852 -6.242405252944451 -1.6678045934297225 -5.347138083006171 -1.6652559331119599 -4.624349792968022 -1.136969184250661 -3.9015615029298747 -0.6086824353893621 -4.187376948202853 3.0373849407878186 -4.473192393475831 6.683452316964999 -4.793686080953458 8.435830529479642 -5.114179768431086 10.188208741994286 -6.0742122024901715 11.923745886835093 -7.034244636549257 13.659283031675898 -9.344978236753839 14.516153494445849 -11.655711836958421 15.373023957215798 -13.539641452467798 14.260017918952151 -15.423571067977173 13.147011880688506 -15.974589035209178 10.655457842754522 -16.525607002441184 8.163903804820537 -16.322626549350453 6.049472348251566 -16.119646096259718 3.935040891682596 -15.367317820107857 2.48146475024695 -14.614989543955996 1.027888608811303 -12.321675521938051 -0.464171193541836 -10.028361499920107 -1.956230995894975 -8.01119534560095 -2.331757772991696 -5.994029191281791 -2.7072845500884166 -4.549748970640895 -2.7025181696362495 -3.10546875 -2.697751789184082 -2.138671875 -2.683309030168587 -1.171875 -2.6688662711530924 -0.5859375 -2.6688662711530924 0 -2.6688662711530924 0.7843601172622963 -2.41401222011502 1.5687202345245925 -2.159158169076948 2.053481446412545 -1.491941601288675 2.5382426583004967 -0.8247250335004022 2.5382426583004967 1.1102230246251565e-16 2.5382426583004967 0.8247250335004024 2.053481446412545 1.4919416012886753 1.5687202345245927 2.159158169076948 0.19842261726229637 2.41401222011502 Z"></path></g><g transform="translate(281 151) rotate(0 1 4.5)" stroke="none" fill="#000000"><path d="M 2.6758192963469867 1.23046875 Q 2.6758192963469867 1.23046875 2.703673162920079 2.16943359375 2.7315270294931713 3.1083984375 2.703673162920079 2.16943359375 2.6758192963469867 1.23046875 2.703673162920079 2.16943359375 2.7315270294931713 3.1083984375 2.745764156245156 4.159515380859375 2.7600012829971408 5.21063232421875 2.516035090434352 7.75427138339973 2.272068897871563 10.29791044258071 1.569960996038493 10.808021692511048 0.8678530942054234 11.318132942441386 -1.6653345369377348e-16 11.318132942441386 -0.8678530942054238 11.318132942441386 -1.569960996038493 10.808021692511048 -2.2720688978715624 10.29791044258071 -2.0857236891274384 9.736821056178385 -1.8993784803833145 9.175731669776063 -1.7000001515133287 4.4649386937219955 -1.5006218226433428 -0.24585428233207196 -0.2676689412883986 -0.5971944689632034 0.9652839400665456 -0.9485346555943348 1.974235642289944 -0.1575674015540911 2.9831873445133423 0.6333998524861526 2.936328324842999 1.9145778130595434 2.8894693051726557 3.1957557736329343 1.8254315215510364 3.9109035411670625 0.7613937379294171 4.626051308701191 -0.44259867658975494 4.1855799700606955 -1.646591091108927 3.745108631420199 -1.9979312777400586 2.5121557500652547 -2.3492714643711903 1.2792028687103105 -1.5583042103309466 0.27025116648691205 -0.7673369562907031 -0.7387005357364864 0.5138410042826861 -0.6918415160661444 1.7950189648560753 -0.6449824963958024 2.5101667323902053 0.41905528722581775 3.2253144999243357 1.483093070847438 2.7848431612838414 2.6870854853666084 2.344371822643347 3.891077899885779 2.3082203602574545 7.0944941712332446 2.2720688978715624 10.29791044258071 1.569960996038493 10.808021692511048 0.8678530942054238 11.318132942441386 1.6653345369377348e-16 11.318132942441386 -0.8678530942054234 11.318132942441386 -1.569960996038493 10.808021692511048 -2.272068897871563 10.29791044258071 -2.516035090434352 7.75427138339973 -2.7600012829971408 5.21063232421875 -2.745764156245156 4.159515380859375 -2.7315270294931713 3.1083984375 -2.703673162920079 2.16943359375 -2.6758192963469867 1.23046875 -2.6758192963469867 0.615234375 -2.6758192963469867 0 -2.4203012904840566 -0.7864035600961907 -2.164783284621126 -1.5728071201923814 -1.4958284605343795 -2.058831249205748 -0.8268736364476327 -2.5448553782191143 1.1102230246251565e-16 -2.5448553782191143 0.8268736364476329 -2.5448553782191143 1.4958284605343792 -2.058831249205748 2.1647832846211257 -1.572807120192382 2.420301290484056 -0.17116918509619095 Z"></path></g><g transform="translate(290 141) rotate(0 5.5 6)" stroke="none" fill="#000000"><path d="M 3.518913118305937 0.900303235165366 Q 3.518913118305937 0.900303235165366 4.539039908597781 2.2668388512858115 5.559166698889624 3.6333744674062567 4.539039908597781 2.2668388512858115 3.518913118305937 0.900303235165366 4.539039908597781 2.2668388512858115 5.559166698889624 3.6333744674062567 7.308000892598754 5.453868415032822 9.056835086307885 7.274362362659387 10.951825607295394 8.663521695372893 12.846816128282905 10.0526810280864 13.225082278339736 11.231518350724603 13.603348428396567 12.410355673362803 12.871988265223656 13.409282610254241 12.140628102050744 14.40820954714568 10.902596515939406 14.403681267752441 9.664564929828067 14.399152988359203 8.940531676623973 13.394902739776555 8.216498423419877 12.390652491193906 8.603377872725794 11.214613799131282 8.990257322031713 10.038575107068658 10.169094644669913 9.660308957011827 11.347931967308114 9.282042806954996 12.346858904199554 10.013402970127906 13.345785841090992 10.744763133300818 13.341257561697756 11.982794719412155 13.336729282304518 13.220826305523492 12.332479033721867 13.94485955872759 11.328228785139219 14.668892811931688 10.152190093076596 14.28201336262577 8.976151401013974 13.895133913319853 6.186842035416525 11.48982844017782 3.3975326698190766 9.084522967035786 2.0753085459396097 7.633886960075791 0.7530844220601426 6.183250953115795 -0.2110393481228972 4.797723858975215 -1.175163118305937 3.412196764834634 -1.761100618305937 2.334071764834634 -2.347038118305937 1.255946764834634 -2.4920294142477397 0.44623732455379106 -2.6370207101895424 -0.36347211572705196 -2.2783858650038353 -1.1037645588854457 -1.9197510198181285 -1.8440570020438394 -1.1944763548157953 -2.232165896407977 -0.4692016898134622 -2.6202747907721147 0.345682524153799 -2.507955730031038 1.1605667381210603 -2.3956366692899613 2.3397399282134987 -0.7476667170622977 Z"></path></g><g transform="translate(298 142) rotate(0 -2.5 6)" stroke="none" fill="#000000"><path d="M 0 -0.75 Q 0 -0.75 0 -0.75 0 -0.75 0 -0.75 0 -0.75 0 -0.75 0 -0.75 0 -0.75 0 -0.75 0.33093030090087316 -0.6751356484490547 0.6618606018017463 -0.6002712968981093 1.5485452651518075 0.01881717506098246 2.435229928501869 0.6379056470200742 1.863119573683868 2.3847466218622806 1.291009218865867 4.131587596704487 0.4097947271822533 6.216623587755667 -0.47141976450136047 8.301659578806847 -1.055186662456912 9.859271957340376 -1.6389535604124637 11.416884335873903 -2.441842602838245 12.106677026145313 -3.2447316452640265 12.796469716416725 -3.252105558935627 11.534675611646659 -3.259479472607227 10.272881506876592 -2.3280025327885006 11.15462047140394 -1.3965255929697742 12.036359435931287 -1.5623589917989962 13.308213269833818 -1.7281923906282182 14.580067103736347 -2.85461818278565 15.193481992488095 -3.981043974943082 15.806896881239846 -5.139403512977869 15.256155497627127 -6.297763051012655 14.70541411401441 -6.533070565473564 13.444563899033245 -6.7683780799344735 12.183713684052082 -5.886639115407126 11.252236744233356 -5.00490015087978 10.32075980441463 -3.7330463169772496 10.486593203243851 -2.4611924830747194 10.652426602073072 -1.8477775943229702 11.778852394230501 -1.234362705571221 12.905278186387932 -1.7851040891839387 14.06363772442272 -2.3358454727966564 15.22199726245751 -3.5966956877778173 15.45730477691842 -4.857545902758979 15.69261229137933 -5.6509464813478285 13.496768149339415 -6.4443470599366774 11.3009240072995 -5.969617944592658 8.826734875379138 -5.494888829248639 6.352545743458778 -4.623417774057253 4.344121651502146 -3.751946718865867 2.3356975595455127 -3.2810883236838677 1.2590522062627192 -2.810229928501869 0.18240685297992576 -1.7360452651518075 -0.21803592506098246 -0.6618606018017463 -0.6184787031018907 -0.33093030090087316 -0.6842393515509453 0 -0.75 0 -0.75 0 -0.75 0 -0.75 0 -0.75 NaN NaN NaN NaN NaN NaN NaN NaN NaN NaN NaN NaN NaN NaN NaN NaN NaN NaN NaN NaN NaN NaN Z"></path></g><g transform="translate(311 152) rotate(0 0 4)" stroke="none" fill="#000000"><path d="M 2.6757874584599506 1.41796875 Q 2.6757874584599506 1.41796875 2.703152016939682 2.66162109375 2.7305165754194136 3.9052734375 2.703152016939682 2.66162109375 2.6757874584599506 1.41796875 2.703152016939682 2.66162109375 2.7305165754194136 3.9052734375 2.7619924129057223 2.908538818359375 2.793468250392031 1.91180419921875 2.217713845359862 3.0417858431257523 1.6419594403276934 4.171767487032755 0.3893651388548526 4.370158934425234 -0.8632291626179882 4.568550381817714 -1.7599876726084758 3.6717918718272253 -2.656746182598963 2.7750333618367375 -2.4583547352064836 1.5224390603638973 -2.259963287814004 0.26984475889105686 -1.1299816439070023 -0.30590964614111205 -5.131517927043537e-16 -0.881664051173281 1.1299816439070016 -0.3059096461411125 2.2599632878140037 0.26984475889105597 2.458354735206483 1.5224390603638969 2.656746182598963 2.775033361836738 1.7599876726084773 3.671791871827225 0.8632291626179917 4.568550381817712 -0.38936513885485063 4.370158934425233 -1.641959440327693 4.171767487032755 -2.217713845359862 3.0417858431257554 -2.793468250392031 1.911804199218756 -2.7619924129057223 2.908538818359378 -2.7305165754194136 3.9052734375 -2.703152016939682 2.66162109375 -2.6757874584599506 1.41796875 -2.6757874584599506 0.708984375 -2.6757874584599506 0 -2.4202724928447 -0.7863942031759588 -2.164757527229449 -1.5727884063519175 -1.4958106626144612 -2.0588067524705504 -0.8268637979994735 -2.5448250985891834 1.1102230246251565e-16 -2.5448250985891834 0.8268637979994737 -2.5448250985891834 1.4958106626144612 -2.0588067524705504 2.1647575272294484 -1.5727884063519177 2.4202724928446995 -0.07740982817595887 Z"></path></g><g transform="translate(310 149) rotate(0 0.5 5.5)" stroke="none" fill="#000000"><path d="M 2.664360562339425 1.359375 Q 2.664360562339425 1.359375 2.732286883116342 2.6595637848050044 2.800213203893259 3.9597525696100084 2.732286883116342 2.6595637848050044 2.664360562339425 1.359375 2.732286883116342 2.6595637848050044 2.800213203893259 3.9597525696100084 3.0165026182583574 5.500486358437775 3.2327920326234554 7.041220147265541 3.3440646375352987 8.340354042300678 3.4553372424471416 9.639487937335813 3.457798887898012 10.893789354246042 3.4602605333488823 12.148090771156273 2.4469562898923254 12.887342158949538 1.4336520464357685 13.626593546742804 0.23997982020660547 13.241334256795824 -0.9536924060225576 12.856074966848846 -1.343634023863253 11.663924121176574 -1.7335756417039483 10.471773275504301 -0.9983072799184427 9.455575194262956 -0.2630389181329371 8.439377113021608 0.9912624987772922 8.436915467570739 2.2455639156875216 8.434453822119867 2.9848153034807874 9.447758065576423 3.724066691274053 10.46106230903298 3.3388074013270765 11.654734535262143 2.9535481113800994 12.848406761491304 1.7613972657078256 13.238348379332002 0.5692464200355516 13.628289997172699 -0.44695166120579366 12.893021635387196 -1.463149742447139 12.157753273601692 -1.5393771375352971 10.840676231136825 -1.6156045326234554 9.523599188671959 -2.0204088682583574 7.050477997030975 -2.425213203893259 4.577356805389991 -2.544786883116342 2.9683659026949956 -2.664360562339425 1.359375 -2.664360562339425 0.6796875 -2.664360562339425 0 -2.4099367682072055 -0.7830359226663973 -2.1555129740749863 -1.5660718453327946 -1.48942283349013 -2.050014659952762 -0.823332692905274 -2.53395747457273 1.1102230246251565e-16 -2.53395747457273 0.8233326929052742 -2.53395747457273 1.4894228334901303 -2.0500146599527627 2.1555129740749863 -1.5660718453327949 2.4099367682072055 -0.10334842266639743 Z"></path></g><g transform="translate(296 133) rotate(0 6 -0.5)" stroke="none" fill="#000000"><path d="M 1.171875 -2.6688662711530924 Q 1.171875 -2.6688662711530924 2.0433120155215514 -2.6863895964603124 2.914749031043103 -2.7039129217675324 2.0433120155215514 -2.6863895964603124 1.171875 -2.6688662711530924 2.0433120155215514 -2.6863895964603124 2.914749031043103 -2.7039129217675324 4.198789977850794 -2.819918792205205 5.482830924658486 -2.9359246626428774 8.40780653137955 -3.3147745282722476 11.332782138100614 -3.693624393901618 12.542448347451792 -3.373127048127217 13.752114556802972 -3.052629702352817 14.20385071547258 -1.885605568221516 14.65558687414219 -0.718581434090215 13.976968368777506 0.33284037035892833 13.298349863412824 1.3842621748080717 12.048849805970974 1.453258501864664 10.799349748529126 1.5222548289212563 10.009092840887973 0.5519430714845404 9.218835933246819 -0.4183686859521756 9.53933327902122 -1.6280348953033548 9.85983062479562 -2.837701104654534 11.026854758926921 -3.289437263324143 12.193878893058223 -3.741173421993752 13.245300697507364 -3.0625549166290713 14.296722501956507 -2.383936411264391 14.365718829013101 -1.1344363538225397 14.434715156069695 0.11506370361931118 13.464403398632982 0.9053206112604638 12.494091641196267 1.6955775189016165 10.926265993202243 1.7532835328004608 9.358440345208221 1.810989546699305 7.368788670651595 2.157772822771878 5.379136996094968 2.5045560988444513 4.150162732525933 2.604234510305992 2.921188468956897 2.7039129217675324 2.0465317344784486 2.6863895964603124 1.171875 2.6688662711530924 0.5859375 2.6688662711530924 0 2.6688662711530924 -0.7843601172622963 2.41401222011502 -1.5687202345245925 2.159158169076948 -2.053481446412545 1.491941601288675 -2.5382426583004967 0.8247250335004022 -2.5382426583004967 -1.1102230246251565e-16 -2.5382426583004967 -0.8247250335004024 -2.053481446412545 -1.4919416012886753 -1.5687202345245927 -2.159158169076948 -0.19842261726229637 -2.41401222011502 Z"></path></g><g transform="translate(307 126) rotate(0 3.5 5)" stroke="none" fill="#000000"><path d="M 1.2292125097255688 -2.652089157558331 Q 1.2292125097255688 -2.652089157558331 2.250413876001586 -2.5057064467163066 3.2716152422776035 -2.3593237358742827 2.250413876001586 -2.5057064467163066 1.2292125097255688 -2.652089157558331 2.250413876001586 -2.5057064467163066 3.2716152422776035 -2.3593237358742827 4.33603306326282 -1.8148376109055917 5.400450884248038 -1.2703514859369007 6.2791757028824575 -0.5640345612378588 7.157900521516877 0.14228236346118306 8.289864899963064 1.7018888037796231 9.421829278409248 3.261495244098063 9.001479228160619 5.687736096254098 8.581129177911992 8.113976948410134 8.198006907298549 9.349440604132962 7.814884636685107 10.584904259855788 6.9738770036550335 11.582561694920056 6.132869370624961 12.580219129984322 4.831415667332972 12.486237989634656 3.5299619640409827 12.392256849284989 2.8410190103981448 11.284117957638395 2.1520760567553063 10.175979065991802 2.6436287444031414 8.96726481033828 3.135181432050976 7.758550554684759 4.401979226742066 7.445760618913724 5.668777021433155 7.1329706831426885 6.666434456497422 7.9739783161727615 7.664091891561689 8.814985949202834 7.570110751212023 10.116439652494822 7.4761296108623565 11.417893355786813 6.367990719215765 12.10683630942965 5.2598518275691735 12.795779263072488 4.051137571915651 12.304226575424654 2.8424233162621273 11.81267388777682 2.529633380491091 10.545876093085731 2.216843444720055 9.279078298394644 2.6251068726628097 6.967737520723917 3.0333703006055646 4.65639674305319 2.168012215330109 3.8026678935242346 1.3026541300546535 2.94893904399528 0.6696874701095978 2.8747265723860425 0.03672081016454232 2.8005141007768053 -0.7898361588194249 2.5438807759794324 -1.616393127803392 2.2872474511820595 -2.1342464789677873 1.5937887335496959 -2.6520998301321828 0.9003300159173323 -2.6634471845202428 0.03492356579062511 -2.6747945389083028 -0.8304828843360821 -2.1753015928261785 -1.5372812170921208 -1.6758086467440543 -2.2440795498481596 -0.22329806850924272 -2.448084353703245 Z"></path></g><g transform="translate(280 68) rotate(0 10 7)" stroke="none" fill="#000000"><path d="M 1.5694394309008808 1.8776624739280208 Q 1.5694394309008808 1.8776624739280208 1.5782567956356566 4.1687152310117375 1.5870741603704324 6.459767988095454 1.5782567956356566 4.1687152310117375 1.5694394309008808 1.8776624739280208 1.5782567956356566 4.1687152310117375 1.5870741603704324 6.459767988095454 1.7694911029912026 8.085863292007492 1.951908045611973 9.71195859591953 2.71669919507775 11.317934286491141 3.4814903445435275 12.923909977062753 3.888186844501087 14.124705160687546 4.294883344458646 15.325500344312339 3.787431843756883 15.30446075836051 3.2799803430551195 15.28342117240868 3.2218093141163173 13.320526974293678 3.1636382851775156 11.357632776178678 3.1796049874924996 8.940103727663024 3.195571689807484 6.52257467914737 3.131327401860827 4.310262388106119 3.06708311391417 2.0979500970648672 2.7135610886602026 -0.6251792524165929 2.3600390634062354 -3.348308601898053 2.84408632676021 -4.0691147966488765 3.328133590114185 -4.7899209913997 4.143415303283827 -5.0885496097918566 4.958697016453469 -5.3871782281840135 5.793803275414216 -5.1495632880051225 6.628909534374964 -4.911948347826231 7.015879733502063 -4.653961479118317 7.402849932629162 -4.395974610410403 9.014846608509508 -3.2625147734416866 10.626843284389853 -2.1290549364729703 12.454461499776706 -0.6644413654984062 14.282079715163558 0.800172205476158 16.03928882471314 2.2502176304375325 17.796497934262725 3.7002630553989073 19.14139596245752 4.860626375132412 20.486293990652314 6.020989694865916 21.612964386126777 7.495607256131801 22.739634781601243 8.970224817397686 23.165514028319357 10.079232286269463 23.59139327503747 11.18823975514124 22.94451292630979 12.184641538172828 22.29763257758211 13.181043321204417 21.111299872904112 13.243376399180423 19.924967168226114 13.305709477156432 19.177229780709858 12.382584622053432 18.429492393193602 11.459459766950431 18.736807079932085 10.311928337266083 19.044121766670564 9.164396907581736 20.15312923554234 8.738517660863623 21.262136704414118 8.31263841414551 22.258538487445705 8.95951876287319 23.254940270477295 9.606399111600869 23.317273348453305 10.792731816278863 23.379606426429312 11.97906452095686 22.45648157132631 12.726801908473117 21.53335671622331 13.474539295989377 20.385825286538964 13.167224609250898 19.238293856854618 12.859909922512418 18.213006501774952 11.272664625013322 17.187719146695287 9.685419327514225 16.013924203852 8.578629938660411 14.840129261008714 7.471840549806598 13.052279163465453 6.180041382576231 11.26442906592219 4.888242215345864 8.52337282135042 3.061299657359706 5.782316576778651 1.2343570993735486 4.312294726638176 -0.6078757520954072 2.8422728764977006 -2.450108603564363 2.601155969951968 -2.8992086027312083 2.3600390634062354 -3.3483086018980535 2.84408632676021 -4.0691147966488765 3.328133590114185 -4.7899209913997 4.143415303283827 -5.0885496097918566 4.958697016453469 -5.3871782281840135 5.793803275414216 -5.1495632880051225 6.628909534374965 -4.911948347826231 7.590492338909932 -2.4873947857893652 8.552075143444899 -0.06284122375249979 8.678152256890488 2.1830822626106166 8.804229370336076 4.429005748973733 8.807672788359756 6.638105926786481 8.811116206383439 8.847206104599229 8.810596398376134 11.110195945981713 8.810076590368828 13.373185787364198 8.513602844304947 15.178854033544251 8.217129098241065 16.984522279724303 6.244054620937752 18.066568375713643 4.270980143634439 19.148614471702984 2.32855986727671 18.303640137162304 0.38613959091898054 17.458665802621624 -0.8938337225599451 15.333302647747534 -2.1738070360388706 13.207939492873441 -2.7639389856028744 11.458664098073886 -3.354070935166878 9.709388703274328 -3.457877235268655 8.070122857589437 -3.5616835353704324 6.430857011904546 -3.5818617418711094 4.352599869127708 -3.602039948371787 2.274342726350871 -3.4010025520009637 1.0510290590443816 -3.1999651556301405 -0.1722846082621079 -2.7923337244478255 -0.5986290746785862 -2.3847022932655104 -1.0249735410950644 -1.855751321798273 -1.6279436968575738 -1.3268003503310357 -2.230913852620083 -0.5444530600932045 -2.4078173755186434 0.23789423014462685 -2.584720898417203 0.9748077652885794 -2.26798665543416 1.711721300432532 -1.9512524124511164 2.1217251568274555 -1.261862119005024 2.5317290132223795 -0.572471825558932 2.05058422206163 0.6525953241845444 Z"></path></g><g transform="translate(301 72) rotate(0 4.5 5)" stroke="none" fill="#000000"><path d="M -0.8233368884067612 -2.9154621442258466 Q -0.8233368884067612 -2.9154621442258466 -0.04155379366369488 -3.2568168635286963 0.7402293010793715 -3.5981715828315455 -0.04155379366369488 -3.2568168635286963 -0.8233368884067612 -2.9154621442258466 -0.04155379366369488 -3.2568168635286963 0.7402293010793715 -3.5981715828315455 1.9849723711150233 -3.66371427277567 3.229715441150675 -3.7292569627197953 4.571918907547546 -3.2485779811413638 5.914122373944417 -2.7678989995629317 7.3056399144697775 -0.8519303603236245 8.69715745499514 1.0640382789156828 8.755204571692854 3.1571492625655475 8.813251688390569 5.250260246215412 8.504605389066882 7.059244776802892 8.195959089743194 8.868229307390372 7.19914953343943 9.775298514066616 6.202339977135664 10.68236772074286 6.179641292293414 9.481632116721727 6.156942607451163 8.280896512700593 7.627377248098075 8.190864306088246 9.097811888744987 8.100832099475898 10.22994525633224 8.777737564111863 11.362078623919492 9.454643028747826 11.47990189653973 10.768433212334056 11.597725169159965 12.082223395920288 10.604101365618732 12.949770920321537 9.610477562077499 13.817318444722789 8.324579453360684 13.523391542148357 7.038681344643868 13.229464639573925 6.520641259676045 12.01638531800216 6.0026011747082215 10.803305996430394 6.679506639344185 9.671172628843141 7.356412103980148 8.539039261255889 8.67020228756638 8.421215988635652 9.98399247115261 8.303392716015416 10.85153999555386 9.297016519556646 11.71908751995511 10.290640323097877 11.42516061738068 11.576538431814695 11.13123371480625 12.862436540531514 9.918154393234486 13.380476625499337 8.705075071662723 13.89851671046716 6.336305662154004 13.55737915277673 3.967536252645286 13.216241595086299 3.5248565536757184 10.331321652068508 3.0821768547061508 7.446401709050718 3.559457144513105 5.0538864745027 4.0367374343200595 2.661371239954681 3.574165293459692 2.198304823993488 3.111593152599325 1.7352384080322953 2.3189468244476683 1.5382973732375298 1.5263004962960116 1.3413563384427643 1.350559594323699 1.7348827898885348 1.1748186923513864 2.1284092413343054 0.4371097084368475 2.2704347950200603 -0.3005992754776914 2.412460348705815 -0.9808989062727875 2.0937469740444707 -1.6611985370678837 1.7750335993831263 -2.0242374783138155 1.117318972826137 -2.387276419559747 0.4596043462691478 -2.2943861349403436 -0.2858868997366604 -2.2014958503209408 -1.0313781457424687 -1.512416369363851 -1.9734201449841575 Z"></path></g><g transform="translate(312 53) rotate(0 8 8.5)" stroke="none" fill="#000000"><path d="M 3.5573790084083283 -0.4510807787387381 Q 3.5573790084083283 -0.4510807787387381 4.87934148975906 1.417212788623841 6.201303971109793 3.28550635598642 4.87934148975906 1.417212788623841 3.5573790084083283 -0.4510807787387381 4.87934148975906 1.417212788623841 6.201303971109793 3.28550635598642 7.434014246855372 4.672666053855171 8.666724522600951 6.059825751723923 9.996916237671364 7.456584309118885 11.327107952741777 8.853342866513845 12.686877536156707 10.087558974470213 14.046647119571638 11.32177508242658 15.931497120726597 13.189602706858308 17.816347121881556 15.057430331290035 18.183171266348594 16.191196078198782 18.549995410815637 17.32496182510753 17.848373476228783 18.28813957751574 17.14675154164193 19.25131732992395 15.955121345504757 19.24983493941871 14.763491149367585 19.248352548913477 14.064267773002804 18.28343214195104 13.365044396638023 17.318511734988597 13.734688215404459 16.185662155796685 14.104332034170895 15.052812576604772 15.238097781079642 14.685988432137732 16.37186352798839 14.319164287670691 17.335041280396595 15.020786222257545 18.298219032804806 15.722408156844399 18.29673664229957 16.91403835298157 18.295254251794336 18.10566854911874 17.330333844831898 18.804891925483524 16.365413437869456 19.504115301848305 15.232563858677546 19.13447148308187 14.099714279485635 18.764827664315437 12.300550913941374 16.802809860280366 10.501387548397112 14.840792056245295 9.168682766577668 13.553050766740725 7.835977984758223 12.265309477236155 6.410798606078636 10.840046550256115 4.985619227399049 9.414783623276078 3.446845128144628 7.7638573836448295 1.9080710288902072 6.11293114401358 1.1440960102409392 4.828880961376159 0.3801209915916714 3.544830778738738 -0.6042540084083285 2.771393278738738 -1.5886290084083285 1.9979557787387379 -2.0241129077214204 1.3402816276207892 -2.4595968070345124 0.6826074765028405 -2.425339515514371 -0.10543310213975321 -2.3910822239942293 -0.8934736807823469 -1.9001688626390343 -1.5108759704222492 -1.4092555012838395 -2.1282782600621517 -0.6491982885998172 -2.3392155707889266 0.11085892408420506 -2.550152881515702 1.8341189662462667 -1.50061683012722 Z"></path></g><g transform="translate(324 48) rotate(0 -6 13)" stroke="none" fill="#000000"><path d="M 0.8345381922094577 3.2449250148244295 Q 0.8345381922094577 3.2449250148244295 0.0980870704986394 4.733307542774819 -0.6383640512121789 6.221690070725208 0.0980870704986394 4.733307542774819 0.8345381922094577 3.2449250148244295 0.0980870704986394 4.733307542774819 -0.6383640512121789 6.221690070725208 -1.6632407935196025 8.342506111477391 -2.6881175358270264 10.463322152229576 -3.7359236605746733 12.539562152699752 -4.78372978532232 14.615802153169927 -5.710392242961624 16.639215788570702 -6.6370547006009275 18.662629423971477 -7.297534974206596 20.611317021932976 -7.9580152478122645 22.56000461989447 -8.634527946035671 24.396023933700196 -9.311040644259077 26.23204324750592 -9.98918796994763 27.24650640414322 -10.66733529563618 28.260969560780516 -11.886658226444322 28.308623332074028 -13.105981157252462 28.356277103367542 -13.86123390458603 27.39783431469513 -14.6164866519196 26.439391526022725 -14.28501657438355 25.265020682033786 -13.9535464968475 24.090649838044847 -12.808627303210066 23.668536901079328 -11.663708109572632 23.246423964113813 -10.649244952935334 23.924571289802365 -9.634781796298034 24.602718615490915 -9.587128025004521 25.822041546299054 -9.53947425371101 27.041364477107198 -10.497917042383417 27.796617224440766 -11.456359831055824 28.551869971774334 -12.630730675044763 28.220399894238284 -13.805101519033704 27.888929816702237 -14.22721445599922 26.744010623064806 -14.64932739296474 25.599091429427375 -13.816896857363886 24.25008860191043 -12.984466321763032 22.901085774393486 -12.223185563004783 21.20425846701046 -11.461904804246537 19.507431159627437 -11.004436913224055 17.964791793606565 -10.546969022201575 16.422152427585697 -9.720242665314625 14.532813809082885 -8.893516308427678 12.643475190580073 -7.957191573800326 10.608631206675248 -7.020866839172974 8.573787222770424 -6.109220143980398 6.250267326022608 -5.197573448787821 3.9267474292747924 -4.187930820498639 1.8877862072251816 -3.1782881922094575 -0.1511750148244293 -2.5923506922094575 -0.9246125148244293 -2.0064131922094575 -1.6980500148244293 -1.3157734030380908 -2.125570709250903 -0.6251336138667242 -2.553091403677377 0.18489607179816053 -2.493015028194061 0.9949257574630452 -2.432938652710745 1.6149415315938556 -1.9082123408313647 2.234957305724666 -1.3834860289519846 2.4281342161645103 -0.5945373970230863 2.621311126604354 0.19441123490581202 1.7279246594069058 1.7196681248651209 Z"></path></g><g transform="translate(332 66) rotate(0 5.5 4)" stroke="none" fill="#000000"><path d="M -0.3894772166036695 -2.9651703030083265 Q -0.3894772166036695 -2.9651703030083265 0.6955689603345685 -3.2966967201440145 1.7806151372728065 -3.6282231372797025 0.6955689603345685 -3.2966967201440145 -0.3894772166036695 -2.9651703030083265 0.6955689603345685 -3.2966967201440145 1.7806151372728065 -3.6282231372797025 3.063073259880787 -3.5309522052623503 4.345531382488767 -3.4336812732449977 5.5481825094993615 -2.7837371799091746 6.750833636509956 -2.1337930865733514 7.1972839555850605 -1.1518997222351317 7.643734274660165 -0.17000635789691199 7.7484152454865995 1.6196191539023175 7.853096216313034 3.409244665701547 7.698441104203654 5.022541095008873 7.543785992094273 6.6358375243162 6.847128271535539 7.662339122293433 6.150470550976803 8.688840720270667 5.998574433242794 7.403039561100802 5.846678315508784 6.117238401930937 8.423337096348387 6.104681862754323 10.99999587718799 6.09212532357771 12.158067915487731 6.727089530101356 13.31613995378747 7.362053736625003 13.483140785094907 8.67217629264812 13.650141616402344 9.982298848671235 12.688390829628794 10.887476076399803 11.726640042855243 11.79265330412837 10.429033353855456 11.546630398444929 9.131426664855667 11.300607492761488 8.567749301488934 10.106212993659183 8.0040719381222 8.911818494556877 8.639036144645846 7.753746456257138 9.274000351169493 6.595674417957398 10.584122907192608 6.4286735866499605 11.894245463215725 6.2616727553425235 12.799422690944292 7.223423542116072 13.704599918672859 8.185174328889621 13.45857701298942 9.482781017889412 13.212554107305978 10.7803877068892 12.018159608203677 11.344065070255933 10.823765109101375 11.907742433622667 8.98213665545984 11.900521260081181 7.140508201818305 11.893300086539695 5.543976038058239 11.683368900555976 3.9474438742981737 11.473437714572258 3.166091660575625 8.903814017984327 2.3847394468530765 6.334190321396397 2.361291556748763 4.222302315702523 2.33784366664445 2.1104143100086485 1.850752054134255 2.324103308258568 1.3636604416240599 2.5377923065084875 0.48760401115389085 2.6962244536945565 -0.38845241931627816 2.854656600880625 -1.1903210392031012 2.467897850403116 -1.9921896590899242 2.081139099925607 -2.4135839101086045 1.2969181490204889 -2.8349781611272853 0.5126971981153704 -2.7149397620524924 -0.3694402046613639 -2.594901362977699 -1.2515776074380982 -1.4921892897906843 -2.1083739552232124 Z"></path></g><g transform="translate(311 42) rotate(0 7 -6)" stroke="none" fill="#000000"><path d="M 1.15510049537132 -2.665709139362588 Q 1.15510049537132 -2.665709139362588 2.115277193464242 -2.860679110201957 3.075453891557164 -3.0556490810413264 2.115277193464242 -2.860679110201957 1.15510049537132 -2.665709139362588 2.115277193464242 -2.860679110201957 3.075453891557164 -3.0556490810413264 4.51357631514783 -3.674383858952321 5.951698738738496 -4.293118636863316 7.446368577758591 -4.73498369435776 8.941038416778687 -5.176848751852204 9.650652185971726 -6.180908955719403 10.360265955164763 -7.184969159586602 8.184541894465795 -8.538355009513527 6.008817833766825 -9.89174085944045 5.610966060480571 -11.151463898821977 5.213114287194316 -12.411186938203501 5.998400229323563 -13.473502408555802 6.7836861714528105 -14.535817878908102 8.10469693597141 -14.524921573037023 9.425707700490008 -14.514025267165945 10.193363049368035 -13.43890042102267 10.961018398246061 -12.363775574879394 10.542440619555338 -11.110786822878008 10.123862840864614 -9.857798070876624 8.864139801483088 -9.45994629759037 7.604416762101563 -9.062094524304115 6.542101291749264 -9.847380466433362 5.4797858213969635 -10.63266640856261 5.490682127268041 -11.953677173081207 5.501578433139119 -13.274687937599802 6.576703279282395 -14.04234328647783 7.65182812542567 -14.80999863535586 8.904816877427052 -14.391420856665139 10.157805629428434 -13.972843077974417 11.915016821606123 -12.597697494623986 13.672228013783814 -11.222551911273554 14.913776282120232 -9.542103883329332 16.15532455045665 -7.861655855385113 16.03284643381284 -5.845413286580785 15.910368317169027 -3.8291707177764565 14.534899581296028 -2.705598583590815 13.15943084542303 -1.582026449405173 11.517989803395611 -0.6730169616211715 9.876548761368191 0.23599252616282995 8.07638867310687 0.8757734503837696 6.276228584845549 1.5155543746047093 4.745980214376949 1.987713413279917 3.2157318439083507 2.4598724519551247 2.2021906742685156 2.5627907956588563 1.18864950462868 2.665709139362588 0.60271200462868 2.665709139362588 0.01677450462868002 2.665709139362588 -0.7682595775365434 2.4160864708013934 -1.5532936597017668 2.1664638022401985 -2.041675050118809 1.5030833651492914 -2.530056440535851 0.8397029280583841 -2.5352400475383345 0.015953501934729164 -2.540423654540818 -0.8077959241889258 -2.060429516438116 -1.4772700567793122 -1.5804353783354137 -2.1467441893696986 -0.21266744148204686 -2.406226664366143 Z"></path></g><g transform="translate(186 79) rotate(0 1 1.5)" stroke="none" fill="#000000"><path d="M -2.0390625 2.686929482362757 Q -2.0390625 2.686929482362757 -2.674651700258282 2.5701772013700315 -3.310240900516564 2.453424920377306 -2.674651700258282 2.5701772013700315 -2.0390625 2.686929482362757 -2.674651700258282 2.5701772013700315 -3.310240900516564 2.453424920377306 -2.4350150039806713 2.469368925880163 -1.5597891074447787 2.48531293138302 -0.4021318215594991 4.055462988622604 0.7555254643257805 5.625613045862187 1.006866609592298 5.717731964528671 1.2582077548588155 5.809850883195155 1.1402273118153996 3.4433277149116406 1.0222468687719837 1.0768045466281257 0.38165224325174485 -2.4427014970691463 -0.258942382268494 -5.962207540766419 0.36927791779157193 -6.578361043080658 0.9974982178516378 -7.194514545394899 1.867905058620227 -7.323734572344704 2.7383118993888163 -7.452954599294509 3.5184394517327444 -7.045883492612231 4.298567004076673 -6.638812385929953 4.579673010331883 -6.100257708863309 4.860779016587093 -5.561703031796666 4.283482326960835 -3.5641927018644735 3.706185637334576 -1.566682371932281 4.07892365174207 -0.3313063636213862 4.4516616661495645 0.9040696446895087 3.6713113888204685 1.931756831515833 2.890961111491373 2.9594440183421575 1.6008663278111104 2.9321867548041687 0.31077154413084784 2.90492949126618 -0.4254755543534685 1.8451994693888976 -1.1617226528377849 0.7854694475116153 -0.7371382422219344 -0.43306064549248924 -0.31255383160608385 -1.6515907384965938 0.9228221767048108 -2.024328752904088 2.1581981850157055 -2.397066767311583 3.1858853718420304 -1.6167164899824873 4.213572558668355 -0.8363662126533917 4.186315295130367 0.45372857102686903 4.159058031592379 1.7438233547071298 3.099328009715096 2.4800704531914484 2.0395979878378134 3.2163175516757665 0.8210678948337105 2.791733141059918 -0.3974621981703925 2.3671487304440695 0.7257326751755753 1.1917719375356874 1.848927548521543 0.01639514462730518 0.9958710609649356 -2.320209737470954 0.14281457340832815 -4.656814619569213 -0.05806390443008269 -5.309511080167816 -0.25894238226849353 -5.962207540766419 0.36927791779157204 -6.578361043080658 0.9974982178516376 -7.194514545394899 1.8679050586202268 -7.323734572344704 2.738311899388816 -7.452954599294509 3.5184394517327444 -7.045883492612231 4.2985670040766735 -6.638812385929953 5.442130230814331 -3.8521835704753267 6.585693457551988 -1.0655547550207012 6.709375611189865 1.19840683164898 6.833057764827741 3.462368418318661 6.522534017711575 5.649342202124969 6.212010270595408 7.836315985931277 4.230396559800731 9.05236014942312 2.2487828490060533 10.26840431291496 -0.19649149133000443 9.941716442286154 -2.641765831666062 9.615028571657348 -4.484734716398548 8.431321123113939 -6.3277036011310335 7.247613674570532 -6.986947416669475 5.7859761241215235 -7.646191232207917 4.324338573672516 -7.634392685363524 2.5695221346353008 -7.622594138519132 0.8147056955980861 -7.174547924041679 -0.16037730306418924 -6.726501709564227 -1.1354603017264646 -5.540435821045579 -1.7788131114386059 -4.3543699325269305 -2.4221659211507474 -3.1967162162634652 -2.554547701756752 -2.0390625 -2.686929482362757 -1.01953125 -2.686929482362757 0 -2.686929482362757 0.7896687618413387 -2.430350548140654 1.5793375236826774 -2.173771613918551 2.0673796583546706 -1.5020392433278618 2.555421793026664 -0.8303068727371725 2.555421793026664 1.6653345369377348e-16 2.555421793026664 0.8303068727371729 2.0673796583546706 1.5020392433278618 1.5793375236826777 2.1737716139185506 -0.22986248815866117 2.4303505481406535 Z"></path></g><g transform="translate(196 79) rotate(0 3.5 6)" stroke="none" fill="#000000"><path d="M 0.5332480353492287 -2.3363772702019663 Q 0.5332480353492287 -2.3363772702019663 0.48744323614343554 -2.1328809924619128 0.4416384369376424 -1.9293847147218595 0.48744323614343554 -2.1328809924619128 0.5332480353492287 -2.3363772702019663 0.48744323614343554 -2.1328809924619128 0.4416384369376424 -1.9293847147218595 1.6387695938806404 -2.7794683482423608 2.8359007508236385 -3.6295519817628623 4.38818248703665 -3.318576417015823 5.940464223249661 -3.007600852268784 7.481369041209273 -1.630366880217796 9.022273859168886 -0.2531329081668078 9.386941474819857 1.3249856277709673 9.75160909047083 2.9031041637087425 9.639144244363791 4.590277491372293 9.526679398256752 6.277450819035844 6.5380759900559084 8.235887530340817 3.5494725818550648 10.19432424164579 2.975455085094693 9.51113197718228 2.401437588334321 8.82793971271877 2.3386180159185637 7.937826541188698 2.2757984435028065 7.047713369658625 2.748171736935748 6.290672268752513 3.2205450303686893 5.533631167846401 3.7726978195604466 5.631304087556147 4.324850608752204 5.728977007265892 6.246328550997514 6.363065060523777 8.167806493242825 6.9971531137816605 8.727009111402797 8.775477716734406 9.286211729562769 10.55380231968715 8.201525293396429 12.916330842929488 7.116838857230091 15.278859366171826 5.3412491149786225 15.581727341032934 3.5656593727271546 15.88459531589404 2.299415952846484 15.483844626721083 1.0331725329658137 15.083093937548126 0.6131074429959649 13.823126146907303 0.19304235302611605 12.563158356266479 0.9654696431324108 11.482728074035023 1.7378969332387055 10.402297791803566 3.0660047623939928 10.3921436103927 4.3941125915492805 10.381989428981838 5.182969692306285 11.450482755048476 5.971826793063291 12.518976081115115 5.571076103890333 13.785219500995787 5.170325414717376 15.051462920876457 3.9103576240765525 15.471528010846306 2.6503898334357285 15.891593100816154 1.5699595512042732 15.119165810709863 0.4895292689728179 14.34673852060357 0.4793750875619527 13.01863069144828 0.46922090615108747 11.69052286229299 1.5377142322177233 10.901665761535986 2.606207558284359 10.112808660778981 3.9586769901750474 10.164111928064997 5.311146422065736 10.215415195351014 4.752482834789404 10.211943611443324 4.193819247513074 10.208472027535636 3.871645914684069 10.201398134590711 3.5494725818550643 10.194324241645788 2.9754550850946924 9.511131977182279 2.401437588334321 8.82793971271877 2.3386180159185637 7.937826541188698 2.2757984435028065 7.047713369658625 2.748171736935748 6.290672268752513 3.2205450303686898 5.533631167846401 3.437963548057927 3.835507752268207 3.655382065747164 2.1373843366900127 2.545442015198968 2.2368808034459895 1.4355019646507712 2.3363772702019663 0.9433144646507712 2.3363772702019663 0.45112696465077123 2.3363772702019663 -0.27859587877101555 2.2458559818999486 -1.0083187221928023 2.1553346935979305 -1.5454698254221952 1.6531811073846279 -2.0826209286515884 1.1510275211713255 -2.2220268273494628 0.42904723940756917 -2.361432726047337 -0.29293304235618706 -2.04984510514333 -0.9589680912438674 -1.7382574842393228 -1.6250031401315477 -0.602504724445047 -1.980690205166757 Z"></path></g><g transform="translate(204 68) rotate(0 5.5 2)" stroke="none" fill="#000000"><path d="M -0.07380403839931249 -3.178100507317149 Q -0.07380403839931249 -3.178100507317149 1.0576097937260653 -3.230844362758332 2.1890236258514433 -3.2835882181995153 1.0576097937260653 -3.230844362758332 -0.07380403839931249 -3.178100507317149 1.0576097937260653 -3.230844362758332 2.1890236258514433 -3.2835882181995153 3.4528884891802054 -2.6999419975465977 4.7167533525089675 -2.11629577689368 6.040245031248988 -1.2189566354935384 7.363736709989008 -0.3216174940933968 9.890387055991399 1.1685820013487778 12.417037401993788 2.658781496790952 13.023496910381219 3.737261690839401 13.62995641876865 4.81574188488785 13.11391556882934 5.940292686524761 12.59787471889003 7.064843488161672 11.384772808152999 7.308352047424931 10.171670897415966 7.551860606688191 9.261624922037182 6.713571284935144 8.3515789466584 5.875281963182098 8.494857650923894 4.6463052029574365 8.638136355189388 3.417328442732775 9.716616549237838 2.8108689343453435 10.795096743286287 2.2044094259579117 11.919647544923198 2.7204502758972224 13.044198346560108 3.236491125836533 13.28770690582337 4.449593036573563 13.53121546508663 5.662694947310593 12.692926143333583 6.572740922689378 11.854636821580536 7.482786898068163 10.625660061355877 7.339508193802669 9.396683301131217 7.196229489537176 6.893426420571105 5.6800660699402865 4.390169540010992 4.163902650343397 2.8850651802598684 3.1295382823269193 1.3799608205087446 2.095173914310442 1.0534216249813866 2.3659055625621184 0.7268824294540286 2.636637210813795 -0.11741690018351136 2.598486147273559 -0.9617162298210513 2.560335083733323 -1.622344103328973 2.0332035304944265 -2.2829719768368943 1.5060719772555298 -2.5075910004507382 0.691306271112706 -2.732210024064582 -0.1234594350301178 -2.4350233652836746 -0.9146464871981184 -2.1378367065027675 -1.7058335393661188 -1.10582037245104 -2.441967023341634 Z"></path></g><g transform="translate(215 63) rotate(0 -3.5 9)" stroke="none" fill="#000000"><path d="M 1.1105151833111857 1.8572429861065225 Q 1.1105151833111857 1.8572429861065225 0.7304759001439356 3.4268815454996604 0.3504366169766855 4.996520104892799 0.7304759001439356 3.4268815454996604 1.1105151833111857 1.8572429861065225 0.7304759001439356 3.4268815454996604 0.3504366169766855 4.996520104892799 -0.506576790205128 6.817219505643703 -1.3635901973869415 8.637918906394606 -1.906950669724497 10.115207709205201 -2.4503111420620525 11.592496512015797 -2.98234311773958 13.25191118665354 -3.514375093417107 14.911325861291282 -3.9914350330643633 16.80084404254409 -4.468494972711619 18.690362223796896 -5.33477853365163 19.528103853189464 -6.20106209459164 20.36584548258203 -7.387998011089532 20.157419534822335 -8.574933927587423 19.94899358706264 -9.103977220914835 18.86623256109361 -9.633020514242247 17.78347153512458 -9.068012289028543 16.71903555724095 -8.503004063814839 15.654599579357322 -7.309753766078307 15.486041065707322 -6.116503468341776 15.317482552057323 -5.278761838949209 16.183766112997333 -4.441020209556642 17.05004967393734 -4.649446157316338 18.236985590435232 -4.857872105076034 19.423921506933127 -5.940633131045061 19.95296480026054 -7.0233941570140885 20.48200809358795 -8.087830134897718 19.916999868374248 -9.15226611278135 19.35199164316054 -9.32082462643135 18.158741345424012 -9.489383140081351 16.965491047687486 -8.955517786759856 15.09548774456529 -8.421652433438362 13.225484441443093 -7.854994376156905 11.525234199088647 -7.288336318875448 9.824983956734203 -6.6896679826192536 8.178493462669799 -6.090999646363058 6.5320029686053935 -5.379897819169871 4.857585181856297 -4.668795991976685 3.1831673951072017 -3.885749337643935 1.4598372045003396 -3.1027026833111853 -0.2634929861065225 -2.6046558083111853 -0.6619304861065225 -2.1066089333111853 -1.0603679861065225 -1.5938113483127654 -1.578228685252865 -1.0810137633143453 -2.0960893843992077 -0.36176092067610244 -2.2136326328542233 0.3574919219621404 -2.331175881309239 1.0084698828573773 -2.0035041533111855 1.659447843752614 -1.6758324253131318 1.9934994677699636 -1.028105183804855 2.327551091787313 -0.3803779422965782 1.7190331375492494 0.7384325219049721 Z"></path></g><g transform="translate(219 71) rotate(0 3 5)" stroke="none" fill="#000000"><path d="M 1.23046875 -2.6758192963469867 Q 1.23046875 -2.6758192963469867 2.2005615234375 -2.7069158562450024 3.170654296875 -2.7380124161430186 2.2005615234375 -2.7069158562450024 1.23046875 -2.6758192963469867 2.2005615234375 -2.7069158562450024 3.170654296875 -2.7380124161430186 4.270609879846791 -2.596204955948732 5.370565462818583 -2.4543974957544448 6.591076467133119 -1.598121710449095 7.811587471447655 -0.7418459251437453 8.106765003606457 0.8919835517975472 8.401942535765258 2.5258130287388396 7.576678456697828 3.822995949518642 6.7514143776303985 5.120178870298444 6.3734052077195615 4.697010707840963 5.9953960378087245 4.273842545383482 6.690499032940227 5.878354822090223 7.38560202807173 7.482867098796965 6.418023355720921 9.708384055879659 5.450444683370112 11.933901012962352 3.143359775884018 12.381836919807048 0.8362748683979244 12.829772826651745 -0.4637273374740233 12.551073434185701 -1.763729543345971 12.272374041719658 -2.3023791230781825 11.056834771729921 -2.8410287028103944 9.841295501740182 -2.1742470551787116 8.691042781241574 -1.507465407547029 7.540790060742965 -0.18496698986045945 7.404126159695945 1.1375314278261102 7.267462258648926 2.0254399123870224 8.257056928035142 2.913348396947935 9.246651597421359 2.6346490044818918 10.546653803293307 2.355949612015848 11.846656009165255 1.140410342026111 12.385305588897467 -0.07512892796362614 12.923955168629679 -1.2253816484622344 12.257173520997998 -2.3756343689608426 11.590391873366316 -2.5122982700078635 10.267893455679745 -2.648962171054884 8.945395037993174 -1.65936750166867 8.057486553432263 -0.669772832282456 7.169578068871351 0.6004468228261328 7.3676461578191335 1.8706664779347217 7.565714246766916 1.7566689345343227 6.225460300102746 1.6426713911339235 4.885206353438576 2.429933789151713 3.494412310983158 3.217196187169502 2.10361826852774 3.84024651451921 2.2790078821410926 4.463296841868917 2.4543974957544448 3.8169755693719587 2.596204955948732 3.170654296875 2.7380124161430186 2.2005615234375 2.7069158562450024 1.23046875 2.6758192963469867 0.615234375 2.6758192963469867 0 2.6758192963469867 -0.7864035600961907 2.4203012904840566 -1.5728071201923814 2.164783284621126 -2.058831249205748 1.4958284605343795 -2.5448553782191143 0.8268736364476327 -2.5448553782191143 -1.1102230246251565e-16 -2.5448553782191143 -0.8268736364476329 -2.058831249205748 -1.4958284605343792 -1.572807120192382 -2.1647832846211257 -0.17116918509619095 -2.420301290484056 Z"></path></g><g transform="translate(201 59) rotate(0 8.5 -6)" stroke="none" fill="#000000"><path d="M 2.9978702135288935 -2.817263689359244 Q 2.9978702135288935 -2.817263689359244 4.616845441231699 -3.161180062299421 6.235820668934504 -3.505096435239598 4.616845441231699 -3.161180062299421 2.9978702135288935 -2.817263689359244 4.616845441231699 -3.161180062299421 6.235820668934504 -3.505096435239598 8.168180556795143 -3.9336034481045092 10.100540444655783 -4.36211046096942 11.544707182913086 -5.242636764995167 12.98887392117039 -6.123163069020913 12.250327329523174 -8.521575168394747 11.51178073787596 -10.91998726776858 11.646614008933291 -12.160845163064518 11.781447279990621 -13.401703058360456 12.864575413135217 -14.02197862171354 13.947703546279813 -14.642254185066626 15.086163761233426 -14.130573946763388 16.22462397618704 -13.618893708460147 16.479836092385348 -12.397101949178778 16.735048208583656 -11.175310189897408 15.89660782984548 -10.250688073244518 15.058167451107305 -9.326065956591627 13.817309555811367 -9.460899227648959 12.57645166051543 -9.595732498706289 11.956176097162345 -10.678860631850885 11.335900533809259 -11.761988764995479 11.847580772112497 -12.900448979949092 12.359261010415734 -14.038909194902704 13.581052769697106 -14.294121311101014 14.802844528978476 -14.549333427299324 15.727466645631365 -13.71089304856115 16.652088762284254 -12.872452669822978 17.47704274003432 -11.500472242149613 18.301996717784387 -10.128491814476249 18.859294752955513 -8.630039052464564 19.416592788126636 -7.13158629045288 18.924224996392276 -5.176205986714422 18.43185720465792 -3.2208256829759634 16.82813647054816 -1.9943943986699184 15.224415736438395 -0.7679631143638735 13.258226708391305 -0.13652007669722643 11.292037680344217 0.4949229609694207 9.313264755704857 1.0156346981045097 7.334491831065496 1.5363464352395986 5.308935808768301 1.9893050622994213 3.2833797864711065 2.442263689359244 1.7130672864711065 2.536013689359244 0.1427547864711065 2.629763689359244 -0.643745239432505 2.420598181711455 -1.4302452653361164 2.211432674063666 -1.9435927516848353 1.5799211075857509 -2.456940238033554 0.9484095411078357 -2.501053893081493 0.13576786990566903 -2.545167548129432 -0.6768738012964977 -2.103197455016266 -1.3602440794982043 -1.6612273619031004 -2.043614357699911 0.6683214258128966 -2.430439023529577 Z"></path></g></svg>