<svg version="1.1" xmlns="http://www.w3.org/2000/svg" viewBox="0 0 286 368" width="286" height="368">
  <!-- svg-source:excalidraw -->
  
  <defs>
    <style>
      @font-face {
        font-family: "Virgil";
        src: url("https://excalidraw.com/Virgil.woff2");
      }
      @font-face {
        font-family: "Cascadia";
        src: url("https://excalidraw.com/Cascadia.woff2");
      }
    </style>
  </defs>
  <rect x="0" y="0" width="286" height="368" fill="#ffffff"></rect><g transform="translate(40 200) rotate(0 112.5 2.5)" stroke="none" fill="#000000"><path d="M 9.969050219292145 -1.1181330520267376 Q 9.969050219292145 -1.1181330520267376 21.040675040566978 -0.43523900609766025 32.11229986184181 0.24765503983141712 21.040675040566978 -0.43523900609766025 9.969050219292145 -1.1181330520267376 21.040675040566978 -0.43523900609766025 32.11229986184181 0.24765503983141712 51.00715032967756 0.43588359620617934 69.9020007975133 0.6241121525809415 90.8546908112088 0.9526590046169257 111.8073808249043 1.2812058566529096 129.22891216157058 1.4570634700749725 146.65044349823685 1.6329210834970354 159.36012243074268 1.9582959554940387 172.0698013632485 2.283670827491042 180.108814931619 2.3647729745254944 188.14782849998952 2.445875121559946 194.1049270107979 2.5602982619225747 200.0620255216063 2.6747214022852033 205.5131951953079 2.985302284582308 210.96436486900947 3.295883166879412 214.1720547266263 3.3723281785897488 217.37974458424316 3.4487731903000856 219.1093745715711 3.4684598467726504 220.83900455889903 3.488146503245215 222.88305758442442 3.4940864633265045 224.9271106099498 3.5000264234077942 225.53154460322486 3.813715981640999 226.1359785964999 4.1274055398742036 226.2374758001626 4.800785008539251 226.3389730038253 5.474164477204299 225.85385612947397 5.952079960726808 225.36873925512262 6.429995444249316 224.69695296269606 6.318439321697783 224.02516667026947 6.206883199146248 223.72055139385967 5.597825628346293 223.41593611744986 4.988768057546338 223.72962567568305 4.384334064271287 224.04331523391625 3.7799000709962356 224.71669470258132 3.6784028673335447 225.39007417124637 3.5769056636708543 225.86798965476888 4.062022538022195 226.34590513829139 4.547139412373534 226.23434901573984 5.218925704800103 226.12279289318832 5.890711997226672 225.51373532238836 6.195327273636483 224.9046777515884 6.499942550046294 222.8531441500905 6.493921776678497 220.80161054859258 6.4879010033107 219.05676658174212 6.4679357341076935 217.31192261489167 6.447970464904687 214.05711327121077 6.369530959422184 210.80230392752983 6.29109145393968 205.40347679604037 5.9821342674654225 200.00464966455093 5.673177080991164 194.06176095459517 5.559447946268342 188.1188722446394 5.445718811545522 180.05793692995326 5.364211858238177 171.99700161526712 5.282704904930832 159.30688501554638 4.957643375560648 146.61676841582565 4.632581846190464 129.18911762358567 4.4566938541437775 111.7614668313457 4.280805862097091 90.8174283294162 3.952370292258075 69.8733898274867 3.6239347224190586 50.93132623282244 3.434233591293821 31.989262638158188 3.2445324601685828 20.713231209433022 3.1657077560976603 9.437199780707855 3.086883052026738 4.585637280707855 2.594695552026738 -0.26592521929214463 2.102508052026738 -0.8584432333699333 1.8235829374069852 -1.450961247447722 1.5446578227872325 -1.7663703214424689 0.9707293145093244 -2.081779395437216 0.39680080623141634 -1.9996039834430586 -0.25290991265501195 -1.9174285714489014 -0.9026206315414402 -1.4690568878080823 -1.379946149276901 -1.020685204167263 -1.8572716670123615 4.474182507562441 -1.4877023595195495 Z"></path></g><g transform="translate(139 10) rotate(0 1.5 174)" stroke="none" fill="#000000"><path d="M 2.305938720703125 6.28125 Q 2.305938720703125 6.28125 2.019287109375 9.92578125 1.732635498046875 13.5703125 2.019287109375 9.92578125 2.305938720703125 6.28125 2.019287109375 9.92578125 1.732635498046875 13.5703125 1.6163177490234375 17.3876953125 1.5 21.205078125 1.5 25.065673828125 1.5 28.92626953125 1.5 33.82891845703125 1.5 38.7315673828125 1.5 44.73847961425781 1.5 50.745391845703125 1.5 58.15336990356445 1.5 65.56134796142578 1.5 74.35084247589111 1.5 83.14033699035645 1.5 93.40021061897278 1.5 103.66008424758911 1.5 115.1313026547432 1.5 126.60252106189728 1.5 136.1265756636858 1.5 145.65063026547432 1.4999999328516558 155.625390034625 1.4999998657033118 165.60014980377574 1.5936375228731 176.05609715918382 1.687275180042888 186.51204451459188 2.0853172391649695 197.3566844212174 2.483359298287051 208.20132432784294 2.8641971415767493 218.69999666295504 3.2450349848664475 229.19866899806715 3.434212483021086 237.9259797867506 3.623389981175724 246.65329057543406 3.9513625636500715 253.78557818323264 4.279335146124419 260.9178657910312 4.362211535256488 266.7591272941214 4.445087924388558 272.6003887972116 4.465693738641086 277.8123938492933 4.486299552893614 283.024398901375 4.491438441365175 288.45273710688855 4.496577329836736 293.88107531240206 4.49786092478252 299.92570656072473 4.499144519728304 305.97033780904735 4.499465327032454 310.4814467837182 4.499786134336604 314.992555758389 4.49986633431985 318.83909551337274 4.4999465343030955 322.6856352683564 4.49996658395955 325.33477039159584 4.499986633616004 327.98390551483527 4.521315484201165 329.86494025734777 4.542644334786326 331.74597499986027 4.642707144836966 333.62248433340824 4.742769954887606 335.49899366695615 4.875500315645442 337.0931209871793 5.008230676403278 338.6872483074025 5.112910928876962 340.2815452199737 5.217591181350647 341.87584213254485 5.334881998694402 343.606533547444 5.452172816038157 345.33722496234304 5.522341495277061 346.62673999517176 5.592510174515964 347.9162550280004 5.058174720354781 348.96494742753526 4.523839266193598 350.0136398270701 3.3613547933651313 350.19775929059443 2.198870320536664 350.38187875411876 1.3666233164027208 349.5496317652231 0.5343763122687775 348.7173847763275 0.7184957545081947 347.5549003001278 0.9026151967476119 346.39241582392816 1.951307586498846 345.8580803505656 2.99999997625008 345.323744877203 4.048692375784914 345.8580803313642 5.097384775319748 346.3924157855254 5.281504238844077 347.5549002583538 5.465623702368406 348.7173847311823 4.633376713472778 349.5496317353162 3.8011297245771507 350.3818787394502 2.6386452483774834 350.1977592972108 1.4761607721778163 350.01363985497136 0.9418252988152372 348.9649474652201 0.4074898254526582 347.9162550754689 0.47765850167931534 346.62674004135545 0.5478271779059725 345.33722500724195 0.6651179490776373 343.6065336772931 0.7824087202493022 341.8758423473443 0.8870888130739246 340.28154571198064 0.991768905898547 338.687249076617 1.1244986401091213 337.09312247286937 1.2572283743196953 335.4989958691218 1.3572886781812867 333.6224895067867 1.4573489820428782 331.74598314445154 1.4786678078718463 329.86495510343184 1.4999866337008143 327.9839270624121 1.499966584332496 325.3348110515225 1.4999465349641778 322.6856950406329 1.4998663388483329 318.83923025910053 1.4997861427324877 314.99276547756824 1.4994653656402752 310.481856306175 1.499144588548063 305.97094713478174 1.4978618459083979 299.927505798848 1.496579103268733 293.8840644629143 1.4914526413984968 288.46011233140234 1.4863261795282605 283.03616019989045 1.4658705924136015 277.83900390387026 1.4454150052989425 272.6418476078501 1.3640457889622621 266.84646371853285 1.282676572625582 261.0510798292156 0.9536667332249291 253.8867858673844 0.6246568938242761 246.7224919055532 0.4359047044789144 238.01347641571755 0.24715251513355257 229.30446092588187 -0.1337283915767493 218.8078281469175 -0.5146092982870512 208.31119536795313 -0.9134422391649696 197.42461481827277 -1.312275180042888 186.5380342685924 -1.4061375228731 176.0690997987769 -1.4999998657033118 165.60016532896142 -1.4999999328516558 155.6253977972179 -1.5 145.65063026547432 -1.5 136.1265756636858 -1.5 126.60252106189728 -1.5 115.1313026547432 -1.5 103.66008424758911 -1.5 93.40021061897278 -1.5 83.14033699035645 -1.5 74.35084247589111 -1.5 65.56134796142578 -1.5 58.15336990356445 -1.5 50.745391845703125 -1.5 44.73847961425781 -1.5 38.7315673828125 -1.5 33.82891845703125 -1.5 28.92626953125 -1.5 25.065673828125 -1.5 21.205078125 -1.6163177490234375 17.3876953125 -1.732635498046875 13.5703125 -2.019287109375 9.92578125 -2.305938720703125 6.28125 -2.305938720703125 3.140625 -2.305938720703125 0 -2.0857411668695893 -0.6776983863597346 -1.8655436130360536 -1.3553967727194691 -1.2890589328602724 -1.7742374096107432 -0.7125742526844911 -2.193078046502017 1.1102230246251565e-16 -2.193078046502017 0.7125742526844914 -2.193078046502017 1.2890589328602724 -1.7742374096107434 1.8655436130360534 -1.3553967727194693 2.0857411668695893 2.462926613640265 Z"></path></g><g transform="translate(141 201) rotate(0 -32 -12.5)" stroke="none" fill="#000000"><path d="M -1.582801526575638 2.4419085997885865 Q -1.582801526575638 2.4419085997885865 -3.2689468543378486 1.8849533188656329 -4.955092182100059 1.3279980379426795 -3.2689468543378486 1.8849533188656329 -1.582801526575638 2.4419085997885865 -3.2689468543378486 1.8849533188656329 -4.955092182100059 1.3279980379426795 -7.077530378071053 0.22349620777702284 -9.199968574042046 -0.8810056223886338 -11.859221171717595 -2.347019346703479 -14.518473769393143 -3.8130330710183236 -17.246148907530404 -4.974343694405089 -19.973824045667666 -6.135654317791855 -22.49203652880108 -7.160171165543895 -25.010249011934494 -8.184688013295935 -27.24646753875342 -9.046595298019732 -29.48268606557235 -9.908502582743527 -31.742702341339616 -10.550200047606957 -34.00271861710688 -11.191897512470387 -36.364907681715984 -12.139862266315472 -38.72709674632509 -13.087827020160555 -41.403913516451865 -14.241013593867082 -44.08073028657865 -15.39420016757361 -46.69726553499144 -16.756181804926477 -49.313800783404226 -18.118163442279343 -51.675166264282666 -19.038999147695932 -54.0365317451611 -19.95983485311252 -56.010861645796 -20.467889873592604 -57.985191546430904 -20.975944894072686 -59.73124963759723 -21.438894713145324 -61.47730772876356 -21.90184453221796 -63.04840357038716 -22.31307007761013 -64.61949941201075 -22.724295623002302 -65.38089376326775 -23.4844605084049 -66.14228811452475 -24.2446253938075 -65.97483817455462 -25.307420072345742 -65.8073882345845 -26.370214750883985 -64.84914467290409 -26.859439942000783 -63.89090111122369 -27.348665133117585 -62.93186818387392 -26.860989159356187 -61.972835256524135 -26.373313185594785 -61.803667995886386 -25.31079050392934 -61.634500735248636 -24.248267822263898 -62.39466562065123 -23.486873471006902 -63.15483050605383 -22.725479119749906 -64.21762518459207 -22.892929059720032 -65.28041986313032 -23.060378999690162 -65.76964505424712 -24.018622561370563 -66.25887024536392 -24.97686612305096 -65.77119427160252 -25.935899050400735 -65.28351829784111 -26.894931977750513 -64.22099561617567 -27.064099238388266 -63.158472934510236 -27.233266499026023 -61.650905092637416 -26.625982973097898 -60.14333725076459 -26.01869944716977 -58.488196890349045 -25.35783796749393 -56.83305652993349 -24.696976487818088 -54.784758545115 -23.96441358113433 -52.73646056029649 -23.231850674450577 -50.257314499361314 -22.190214671211805 -47.77816843842614 -21.148578667973037 -45.28265751958448 -19.910673470704474 -42.78714660074282 -18.672768273435913 -40.015778701851815 -17.676407508656723 -37.2444108029608 -16.680046743877533 -35.06386119149874 -15.779822143779745 -32.883311580036676 -14.879597543681957 -30.47237315151927 -14.128537592773903 -28.06143472300187 -13.377477641865848 -25.863834432682125 -12.418355263503706 -23.66623414236238 -11.459232885141565 -21.199171356941108 -10.449631080549857 -18.732108571519834 -9.440029275958146 -15.768682635438346 -8.46486528996991 -12.805256699356857 -7.489701303981676 -9.950105000157405 -6.409816590796521 -7.094953300957954 -5.329931877611366 -5.159774309428948 -4.500839957777023 -3.2245953178999414 -3.6717480379426792 -2.180271895662152 -3.244328318865633 -1.135948473424362 -2.8169085997885865 -0.4562609734243619 -2.7231585997885865 0.22342652657563813 -2.6294085997885865 0.974854990388114 -2.3126590124405477 1.7262834542005898 -1.9959094250925087 2.148021115369039 -1.297975056784932 2.5697587765374887 -0.6000406884773553 2.5007161828314506 0.212491254012953 2.4316735891254124 1.0250231965032612 1.8982226646691442 1.6417931280899773 1.3647717402128763 2.2585630596766935 -0.10901489318138091 2.35023582973264 Z"></path></g><g transform="translate(80 164) rotate(0 -9.5 11.5)" stroke="none" fill="#000000"><path d="M -1.96875 2.6787697076797485 Q -1.96875 2.6787697076797485 -3.1033187600234955 2.684329603846683 -4.237887520046991 2.689889500013617 -3.1033187600234955 2.684329603846683 -1.96875 2.6787697076797485 -3.1033187600234955 2.684329603846683 -4.237887520046991 2.689889500013617 -6.074584595097088 2.786956583154522 -7.9112816701471855 2.884023666295427 -9.933857275262804 3.245870678054448 -11.956432880378424 3.6077176898134695 -13.508568289592588 3.7622963659691937 -15.060703698806755 3.9168750421249183 -15.82782331706335 5.1250948234166485 -16.594942935319946 6.333314604708378 -15.297780550302917 9.299399669261385 -14.00061816528589 12.265484733814393 -12.87385280223395 14.15877412573545 -11.74708743918201 16.052063517656507 -10.879402856559516 17.322876111574352 -10.011718273937019 18.593688705492195 -9.135399848868207 19.541272654263388 -8.259081423799397 20.48885660303458 -7.440013717474654 21.324254429034994 -6.620946011149911 22.159652255035407 -6.815361131041424 23.313326470916067 -7.009776250932937 24.46700068679673 -8.057392637847489 24.98782824088579 -9.105009024762042 25.50865579497485 -10.142140829447126 24.967251089656408 -11.17927263413221 24.425846384337962 -11.3508778061724 23.268559427633036 -11.52248297821259 22.11127247092811 -10.687085152212177 21.29220476460337 -9.851687326211765 20.473137058278624 -8.698013110331104 20.667552178170137 -7.544338894450441 20.86196729806165 -7.023511340361381 21.909583684976198 -6.502683786272321 22.95720007189075 -7.044088491590765 23.994331876575835 -7.5854931969092085 25.031463681260924 -8.742780153614131 25.203068853301115 -9.900067110319055 25.374674025341307 -11.31138206165335 23.947415180888136 -12.722697012987643 22.52015633643497 -13.913534040836016 20.61204660298332 -15.104371068684388 18.703936869531674 -16.594519544155524 16.379088537740415 -18.08466801962666 14.054240205949153 -19.574917378176746 10.952801858532744 -21.065166736726834 7.851363511116334 -20.98240648360638 5.001880738238899 -20.899646230485924 2.152397965361464 -19.481824480099785 0.9773174351927281 -18.064002729713646 -0.1977630949760082 -16.31680778740089 -0.8192906657751271 -14.569612845088134 -1.4408182365742461 -12.960976990408183 -1.6160413571116599 -11.352341135728231 -1.7912644776490738 -9.570803956172709 -2.1145459523320604 -7.789266776617187 -2.4378274270150473 -6.0178771282850985 -2.5638584635143324 -4.246487479953009 -2.689889500013617 -3.1076187399765045 -2.684329603846683 -1.96875 -2.6787697076797485 -0.984375 -2.6787697076797485 0 -2.6787697076797485 0.7872706642309878 -2.4229699626047374 1.5745413284619756 -2.1671702175297267 2.061101357302432 -1.4974777906097896 2.5476613861428885 -0.8277853636898524 2.5476613861428885 1.6653345369377348e-16 2.5476613861428885 0.8277853636898528 2.061101357302432 1.4974777906097896 1.5745413284619758 2.1671702175297263 -0.1971043357690121 2.4229699626047374 Z"></path></g><g transform="translate(187 204) rotate(0 -41.5 -18.5)" stroke="none" fill="#000000"><path d="M -1.5047379234090221 2.4107712156673733 Q -1.5047379234090221 2.4107712156673733 -2.9813467695788933 1.9528960768469452 -4.457955615748764 1.495020938026517 -2.9813467695788933 1.9528960768469452 -1.5047379234090221 2.4107712156673733 -2.9813467695788933 1.9528960768469452 -4.457955615748764 1.495020938026517 -6.433498048091591 0.9008332231920524 -8.409040480434419 0.30664550835758786 -10.3577882973952 -0.5569434241865328 -12.306536114355982 -1.4205323567306534 -13.899610940912897 -2.0127904652845503 -15.492685767469812 -2.605048573838447 -17.263912640722715 -3.505880093363454 -19.035139513975622 -4.406711612888461 -20.72124341447298 -4.982570229803872 -22.407347314970337 -5.558428846719282 -24.246204717988128 -6.228894049049034 -26.08506212100592 -6.899359251378785 -27.85535320224936 -7.659163435566369 -29.625644283492804 -8.418967619753953 -31.551642731274256 -9.144160523971635 -33.47764117905571 -9.869353428189319 -35.52588889683121 -11.109896253169001 -37.574136614606715 -12.350439078148682 -39.34361346520301 -12.88184251952717 -41.11309031579931 -13.413245960905659 -42.7003976521553 -14.101225572476219 -44.28770498851129 -14.789205184046779 -46.326516942580085 -15.874571907363988 -48.36532889664888 -16.959938630681197 -50.15559084376915 -17.906029486413765 -51.94585279088941 -18.852120342146332 -53.53156520549808 -19.761616659002833 -55.11727762010676 -20.67111297585933 -56.72459914099058 -21.276553200932575 -58.331920661874385 -21.881993426005817 -60.35836310678975 -22.891477631272913 -62.384805551705114 -23.900961836540013 -64.33744683153958 -24.886527925381984 -66.29008811137405 -25.87209401422395 -68.2913999688715 -26.872530127543584 -70.29271182636897 -27.872966240863214 -72.33098119567208 -28.88448974780122 -74.36925056497518 -29.896013254739227 -76.3612377579532 -30.886310146858136 -78.35322495093125 -31.87660703897705 -81.51436322575796 -33.26663445265697 -84.67550150058467 -34.65666186633689 -85.22104189636593 -35.86264696963771 -85.7665822921472 -37.068632072938534 -85.11158044778384 -38.218843782448246 -84.45657860342048 -39.369055491957965 -83.14103735895691 -39.515225348385 -81.82549611449333 -39.66139520481203 -80.93398647430034 -38.68301646717735 -80.04247683410735 -37.70463772954267 -80.3099856410069 -36.40831468683925 -80.57749444790646 -35.11199164413583 -81.78347955120728 -34.56645124835456 -82.9894646545081 -34.020910852573294 -84.13967636401782 -34.675912696936656 -85.28988807352754 -35.33091454130002 -85.43605792995457 -36.64645578576359 -85.58222778638161 -37.96199703022717 -84.60384904874692 -38.85350667042016 -83.62547031111224 -39.74501631061315 -82.32914726840882 -39.477507503713596 -81.0328242257054 -39.20999869681405 -78.82906163709896 -38.14813786904874 -76.62529904849254 -37.08627704128343 -74.82640111721616 -36.180049898105295 -73.02750318593979 -35.27382275492715 -71.07709156043205 -34.058280508471334 -69.12667993492431 -32.842738262015516 -67.06373378212817 -31.965075533747108 -65.00078762933201 -31.0874128054787 -63.010737123514076 -30.341417808540662 -61.02068661769614 -29.595422811602624 -59.46295011595352 -28.71326583200903 -57.90521361421089 -27.831108852415433 -56.440734515051595 -27.00602783542506 -54.9762554158923 -26.180946818434684 -53.36216516955573 -25.56959906499634 -51.748074923219164 -24.958251311557998 -50.20225602359409 -24.079282951451283 -48.65643712396902 -23.200314591344572 -46.80517168339513 -22.183409718842398 -44.95390624282125 -21.166504846340228 -43.027914703130634 -20.364840707127534 -41.10192316344002 -19.563176567914844 -39.33985481388686 -18.774836174370428 -37.5777864643337 -17.98649578082601 -36.00236374361821 -17.47442362784664 -34.426941022902724 -16.96235147486727 -32.290751008538386 -15.719735348059949 -30.154560994174048 -14.47711922125263 -27.70092790231604 -13.311907741581464 -25.24729481045803 -12.146696261910298 -23.544758825994787 -11.507553795388791 -21.842222841531544 -10.868411328867285 -20.218871860452435 -10.292507539803093 -18.595520879373325 -9.7166037507389 -16.423535459575827 -8.74917375345943 -14.25155003977833 -7.781743756179961 -11.443781680000193 -6.7332457800765715 -8.636013320222055 -5.684747803973182 -6.736383897245073 -4.853304073493758 -4.83675447426809 -4.0218603430143345 -3.1727932459061496 -3.4557738608934296 -1.5088320175442094 -2.889687378772525 -0.7554395323059016 -2.769958337996237 -0.0020470470675936214 -2.650229297219949 0.7770312765828846 -2.397756530869171 1.556109600233363 -2.1452837645183926 2.0379974353492742 -1.4830982569012643 2.5198852704651857 -0.8209127492841357 2.5205178427973576 -0.0019468574527976013 2.5211504151295294 0.8170190343785405 2.040286103547415 1.4799481753713863 1.5594217919653004 2.142877316364232 0.027341934278139135 2.2768242660158027 Z"></path></g><g transform="translate(103 172) rotate(0 6 -4.5)" stroke="none" fill="#000000"><path d="M 0 0.75 Q 0 0.75 0 0.75 0 0.75 0 0.75 0 0.75 0 0.75 0 0.75 0 0.75 0 0.75 -0.3316275626420975 0.6796875 -0.663255125284195 0.609375 -1.6626301029105777 0.19678654863660727 -2.6620050805369604 -0.21580190272678546 -2.7568715306397342 -1.0659302210371688 -2.8517379807425085 -1.9160585393475524 -3.1447852110826044 -3.1422748057885057 -3.4378324414227 -4.3684910722294585 -3.4523912355402784 -6.2028865271446705 -3.4669500296578573 -8.037281982059882 -2.5724376894061933 -9.320135954457966 -1.6779253491545294 -10.602989926856049 0.44534044572306497 -11.269493941258627 2.5686062406006593 -11.935997955661206 5.107342683995337 -12.200417293655358 7.646079127390014 -12.46483663164951 9.887128165407502 -12.554119657494967 12.12817720342499 -12.643402683340424 13.34017823012508 -12.374755010185815 14.552179256825168 -12.106107337031206 15.047235053001451 -10.967670768887983 15.542290849177734 -9.829234200744759 14.912262814586299 -8.759569423049282 14.282234779994866 -7.689904645353806 13.04653660929127 -7.570874851044817 11.810838438587675 -7.451845056735826 10.988216151130386 -8.38158191907484 10.165593863673097 -9.311318781413853 10.434241536827706 -10.523319808113941 10.702889209982315 -11.73532083481403 11.841325778125539 -12.230376630990314 12.979762346268762 -12.725432427166597 14.049427123964236 -12.095404392575166 15.119091901659711 -11.465376357983732 15.238121695968704 -10.229678187280136 15.357151490277696 -8.993980016576538 14.427414627938685 -8.17135772911925 13.497677765599674 -7.348735441661962 11.259246060208955 -7.249333467564639 9.020814354818238 -7.1499314934673155 6.164885360782204 -6.2757092435121855 3.3089563667461697 -5.4014869935570555 2.892847173744339 -3.8608782896047513 2.4767379807425085 -2.320269585652447 2.5693715306397342 -1.2748900914628307 2.6620050805369604 -0.22951059727321454 1.6626301029105777 0.18993220136339273 0.663255125284195 0.609375 0.3316275626420975 0.6796875 0 0.75 0 0.75 0 0.75 0 0.75 0 0.75 NaN NaN NaN NaN NaN NaN NaN NaN NaN NaN NaN NaN NaN NaN NaN NaN NaN NaN NaN NaN NaN NaN Z"></path></g><g stroke-linecap="round"><g transform="translate(10 143) rotate(0 129.5 57)"><path d="M-0.94 -0.78 C42.15 18.36, 215.16 95.32, 258.53 114.33 M0.76 1.42 C43.66 20.23, 214.35 93.59, 257.33 112.39" stroke="#000000" stroke-width="1" fill="none"></path></g></g><g stroke-linecap="round"><g transform="translate(17 125) rotate(0 129.5 59.5)"><path d="M0.91 0.7 C44.04 20.4, 215.51 98.14, 258.54 117.81 M-0.07 0.03 C42.89 19.86, 214.28 98.74, 257.36 118.73" stroke="#000000" stroke-width="1" fill="none"></path></g></g></svg>